<?xml version="1.0" standalone="no"?>
<!DOCTYPE svg PUBLIC "-//W3C//DTD SVG 20010904//EN"
 "http://www.w3.org/TR/2001/REC-SVG-20010904/DTD/svg10.dtd">
<svg version="1.0" xmlns="http://www.w3.org/2000/svg"
 width="679.000000pt" height="665.000000pt" viewBox="0 0 679.000000 665.000000"
 preserveAspectRatio="xMidYMid meet">

<g transform="translate(0.000000,665.000000) scale(0.100000,-0.100000)"
fill="#000000" stroke="none">
<path d="M0 3325 l0 -3325 3395 0 3395 0 0 3325 0 3325 -3395 0 -3395 0 0
-3325z m1040 2998 c0 -16 53 -33 66 -22 20 16 27 8 77 -93 26 -51 60 -107 77
-125 16 -18 30 -34 30 -38 0 -3 12 -19 28 -37 15 -17 48 -57 75 -87 26 -31 55
-63 64 -71 9 -8 37 -36 62 -62 48 -52 74 -64 47 -23 -33 50 8 54 51 6 12 -14
25 -35 29 -46 4 -11 16 -32 28 -46 11 -14 35 -43 51 -64 68 -87 80 -87 88 3 4
37 7 103 7 148 0 72 11 131 48 259 9 32 36 45 45 22 3 -8 -5 -68 -18 -133 -23
-120 -36 -306 -22 -320 4 -4 7 1 7 10 0 10 6 16 13 13 8 -3 11 -28 9 -88 -3
-93 6 -121 32 -100 9 8 16 24 16 37 0 15 6 24 15 24 20 0 19 -31 -2 -75 -9
-19 -13 -38 -8 -42 4 -5 10 -2 12 5 3 6 13 12 24 12 23 0 23 0 4 -36 -16 -32
-29 -14 114 -162 139 -145 257 -281 321 -370 17 -23 42 -47 55 -52 14 -5 25
-17 25 -27 0 -9 13 -31 29 -47 80 -86 212 -215 250 -245 24 -19 49 -41 57 -48
22 -22 30 -15 30 27 0 40 9 59 21 47 3 -4 6 -28 5 -54 -1 -71 30 -101 42 -41
7 34 18 32 21 -5 2 -22 35 -39 35 -18 0 24 21 9 35 -26 11 -26 18 -34 24 -25
11 18 46 -35 43 -64 -2 -15 4 -23 20 -28 13 -3 34 -25 48 -48 14 -23 39 -56
55 -72 17 -17 30 -33 30 -36 1 -14 24 -39 57 -61 33 -22 87 -81 107 -116 10
-19 46 -4 65 28 9 16 14 29 10 29 -4 0 1 9 11 20 10 11 22 20 27 20 9 0 50 40
112 111 21 24 79 86 129 137 91 94 116 144 29 60 -26 -25 -71 -68 -101 -94
-29 -27 -85 -79 -125 -116 -39 -37 -75 -68 -79 -68 -5 0 -17 -10 -26 -22 -10
-12 -23 -18 -30 -14 -8 5 -4 16 14 38 14 16 25 34 25 39 0 5 4 9 9 9 6 0 40
32 77 70 38 39 73 70 80 70 7 0 22 14 34 30 12 17 26 30 32 30 30 0 249 198
298 270 21 30 54 69 74 87 20 18 36 36 36 41 0 5 12 15 28 23 15 8 29 16 32
19 3 3 14 10 25 16 11 6 27 25 35 42 8 17 19 32 25 32 16 0 75 63 75 81 0 9 6
22 14 29 8 6 13 17 10 25 -12 31 60 105 185 192 25 17 90 80 143 140 54 59
122 133 152 163 30 30 66 74 80 98 14 23 31 42 36 42 6 0 10 6 10 13 0 8 9 22
20 32 12 10 18 25 16 32 -3 7 -1 15 4 18 6 4 10 1 10 -4 0 -6 11 -1 25 11 18
15 23 28 19 45 -4 14 -2 23 5 23 6 0 11 -7 11 -15 0 -10 12 -2 31 19 17 20 27
40 24 46 -4 7 2 14 14 17 12 3 21 11 21 19 0 7 21 35 48 61 26 26 53 60 61 76
8 15 20 27 28 27 7 0 19 15 27 34 8 19 20 38 28 42 7 5 39 39 71 77 56 64 87
81 103 56 3 -6 3 -14 -2 -18 -17 -11 -154 -168 -154 -175 0 -3 -22 -29 -50
-56 -27 -27 -50 -54 -50 -60 0 -5 -6 -10 -14 -10 -14 0 -33 -37 -24 -46 6 -6
58 20 58 29 0 4 5 7 11 7 13 0 39 25 39 38 0 16 112 112 131 112 11 0 19 9 21
23 2 14 11 23 26 25 12 2 58 41 103 87 93 95 130 119 166 102 27 -12 29 -24 6
-49 -23 -26 -8 -35 26 -15 16 9 37 17 47 17 20 0 -46 -65 -161 -158 -38 -31
-108 -93 -155 -138 -47 -44 -105 -99 -129 -120 -79 -70 -120 -116 -115 -129 3
-7 -9 -25 -27 -41 -17 -16 -39 -37 -48 -47 -9 -10 -40 -43 -68 -73 -29 -30
-53 -61 -53 -69 0 -8 -36 -51 -80 -97 -44 -46 -80 -88 -80 -95 0 -6 -3 -13 -7
-15 -5 -1 -28 -28 -52 -58 -24 -30 -60 -72 -80 -92 -68 -71 -101 -126 -101
-170 0 -15 -3 -18 -13 -10 -7 6 -17 8 -23 4 -12 -8 -45 -79 -65 -137 -7 -22
-29 -62 -49 -90 -19 -27 -41 -63 -49 -80 -7 -16 -17 -38 -22 -47 -5 -10 -9
-23 -9 -30 0 -7 -9 -24 -20 -38 -11 -14 -20 -34 -20 -45 -1 -27 -23 -55 -44
-55 -20 0 -21 -1 8 64 14 31 27 72 31 93 3 21 17 49 30 63 14 14 25 36 25 48
0 23 18 62 34 73 5 4 6 15 2 25 -7 18 -9 17 -24 -6 -10 -14 -28 -35 -41 -47
-18 -17 -22 -29 -17 -48 5 -21 1 -31 -19 -46 -14 -11 -25 -26 -25 -33 0 -16
-35 -48 -43 -40 -10 10 -37 -16 -37 -35 0 -9 -12 -29 -26 -46 -14 -16 -30 -37
-34 -45 -5 -8 -12 -11 -17 -6 -4 5 -2 11 5 13 14 5 16 43 2 43 -5 0 -10 -6
-10 -14 0 -8 -13 -24 -30 -36 -16 -12 -30 -27 -30 -33 0 -12 -38 -63 -77 -104
-13 -13 -23 -28 -23 -32 0 -4 -27 -37 -60 -72 -33 -35 -60 -69 -60 -76 0 -7
-19 -31 -43 -55 -23 -24 -80 -88 -125 -144 -71 -88 -81 -105 -80 -137 1 -20 6
-37 12 -37 7 0 19 -9 29 -20 9 -11 23 -20 30 -20 8 0 41 -28 74 -62 153 -161
376 -365 393 -361 6 2 10 -1 10 -5 0 -12 59 -72 120 -122 30 -24 61 -52 68
-62 7 -10 21 -18 31 -18 11 0 28 -19 45 -50 15 -27 53 -71 84 -97 97 -82 183
-167 198 -194 7 -15 25 -30 39 -33 14 -4 25 -12 25 -20 0 -7 7 -19 15 -26 8
-7 12 -16 9 -21 -3 -5 0 -9 5 -9 6 0 11 -6 11 -13 0 -8 9 -22 20 -32 21 -19
28 -7 8 13 -6 6 -8 15 -4 19 4 4 10 3 14 -3 4 -6 14 -15 24 -20 9 -5 37 -28
61 -51 33 -31 44 -48 40 -62 -4 -15 4 -29 28 -48 53 -44 269 -263 269 -272 0
-5 17 -16 38 -24 20 -8 46 -24 56 -36 11 -12 24 -21 31 -21 6 0 27 -14 45 -30
30 -27 33 -33 22 -50 -11 -17 -9 -20 16 -26 47 -10 70 -22 110 -59 22 -19 44
-35 50 -35 7 0 19 -11 28 -26 24 -35 6 -51 -28 -24 -34 26 -51 26 -43 0 5 -16
2 -20 -18 -20 -14 0 -27 4 -29 8 -1 4 -18 18 -36 31 -26 18 -36 20 -47 11 -21
-17 -45 -5 -45 22 0 27 -37 55 -52 40 -7 -7 -2 -19 16 -37 14 -14 26 -33 26
-41 0 -24 28 -60 70 -89 40 -28 50 -48 29 -61 -16 -10 -59 16 -99 58 -20 21
-42 38 -50 38 -8 0 -23 14 -32 30 -11 19 -25 30 -40 30 -16 0 -31 13 -48 40
-13 22 -28 40 -32 40 -4 0 -8 11 -8 25 0 19 -5 25 -23 25 -27 0 -53 17 -117
79 -64 61 -84 78 -134 111 -22 16 -52 40 -65 54 -14 14 -30 26 -38 26 -7 0
-18 9 -25 20 -7 11 -30 25 -50 31 -41 11 -48 25 -20 45 16 12 15 13 -5 14 -12
0 -46 24 -79 55 -31 31 -73 63 -91 72 -19 9 -62 47 -96 84 -34 38 -67 69 -72
69 -6 0 -36 24 -66 53 -68 64 -141 127 -146 127 -2 0 -43 37 -91 83 -320 306
-438 409 -497 435 -37 16 -66 42 -59 53 8 13 48 11 62 -3 6 -6 15 -9 19 -5 3
4 -22 37 -58 73 -132 137 -145 147 -168 139 -11 -3 -22 -1 -26 5 -11 17 -35
-8 -35 -36 0 -17 -7 -25 -25 -30 -14 -3 -25 -10 -25 -15 0 -17 -53 -69 -71
-69 -13 0 -19 12 -24 50 -4 28 -12 50 -18 49 -45 -2 -219 -104 -241 -140 -8
-14 -56 -68 -107 -119 -50 -51 -102 -111 -116 -132 -22 -32 -43 -49 -43 -34 0
2 -2 11 -5 18 -6 14 7 29 156 185 43 46 76 83 74 83 -8 0 -44 -22 -114 -69
-79 -52 -122 -78 -176 -103 -22 -10 -45 -22 -51 -26 -107 -71 -130 -86 -134
-92 -7 -10 -128 -90 -135 -90 -16 0 -78 -57 -88 -79 -8 -21 -11 -23 -14 -8 -5
20 -24 22 -42 5 -11 -10 -14 -10 -18 0 -7 19 -23 14 -23 -7 0 -23 -29 -36 -36
-16 -5 12 -11 11 -39 -3 -18 -9 -38 -25 -44 -34 -10 -15 -8 -16 24 -2 42 17
55 18 55 2 0 -15 -50 -48 -100 -68 -19 -7 -39 -17 -44 -22 -6 -4 -17 -8 -26
-8 -8 0 -21 -9 -28 -20 -7 -11 -21 -20 -31 -20 -10 0 -24 -6 -30 -14 -7 -8
-27 -22 -46 -31 -26 -12 -35 -22 -35 -40 0 -13 5 -27 10 -30 13 -8 13 -45 0
-45 -6 0 -16 11 -22 25 -6 14 -15 25 -21 25 -5 0 -6 -8 -1 -17 4 -10 10 -53
13 -97 5 -61 3 -80 -8 -84 -7 -3 -17 1 -22 9 -6 10 -9 4 -9 -19 0 -32 0 -32
24 -17 23 15 25 15 31 -5 4 -14 1 -28 -11 -41 -15 -17 -16 -24 -6 -39 17 -28
16 -80 -3 -80 -8 0 -22 -12 -32 -26 -15 -24 -17 -63 -20 -348 -1 -177 -5 -340
-9 -363 -5 -39 -8 -42 -26 -32 -11 6 -22 8 -25 6 -2 -3 -5 -67 -6 -143 -2
-102 1 -138 11 -141 14 -5 17 -43 2 -43 -5 0 -10 -14 -10 -30 0 -17 -9 -40
-20 -52 l-20 -22 0 27 c0 16 5 26 13 24 13 -2 15 50 2 81 -6 15 -8 14 -16 -5
-5 -14 -17 -23 -29 -23 -20 0 -27 14 -11 24 10 6 -14 105 -29 120 -6 6 -7 42
-4 92 4 45 3 91 -2 101 -6 12 -10 -9 -14 -70 -3 -51 -9 -86 -15 -85 -5 2 -9
10 -8 18 10 72 9 150 -3 150 -9 0 -12 20 -10 75 1 41 6 78 9 82 9 9 9 43 0 43
-11 0 -10 167 1 177 4 4 13 0 20 -10 16 -21 32 -22 40 -1 9 22 2 27 -35 26
l-31 -1 7 47 c3 26 6 106 5 179 0 72 3 134 9 137 12 8 21 -17 28 -86 3 -32 9
-58 12 -58 3 0 6 51 6 112 0 62 4 134 8 160 7 38 5 48 -6 48 -7 0 -19 -12 -26
-27 -12 -25 -14 -26 -23 -10 -5 10 -7 29 -4 42 9 35 -8 39 -42 10 -16 -14 -35
-25 -41 -25 -14 0 -15 37 -1 45 13 8 13 35 -1 35 -9 0 -77 -46 -89 -61 -3 -3
-23 -12 -45 -20 -22 -8 -46 -20 -54 -28 -8 -7 -53 -32 -100 -55 -47 -22 -92
-46 -99 -54 -14 -12 -58 -33 -100 -46 -18 -6 -22 -3 -22 13 0 15 14 25 57 41
54 20 112 49 123 60 12 13 100 60 112 60 8 0 23 9 34 19 69 71 87 91 81 98
-10 9 -77 -24 -77 -38 0 -21 -28 -37 -76 -42 -27 -3 -61 -8 -75 -12 -19 -5
-28 -3 -32 9 -8 20 18 46 47 46 13 0 29 7 36 15 7 8 22 15 34 15 37 0 102 55
124 103 7 16 21 31 31 34 10 3 25 16 32 30 7 13 25 31 40 39 34 17 107 91 115
116 4 13 11 17 25 13 16 -5 19 -1 19 24 0 16 5 33 11 37 8 4 8 9 0 17 -14 14
-14 39 2 69 17 33 11 163 -8 148 -8 -7 -15 -53 -20 -133 -4 -67 -12 -128 -17
-134 -19 -24 -28 -13 -23 30 2 23 7 88 10 145 l5 102 -116 -60 c-63 -33 -119
-60 -125 -60 -26 0 0 19 80 58 88 43 152 92 118 92 -9 0 -23 -9 -31 -21 -8
-12 -19 -18 -25 -15 -6 4 -20 2 -32 -4 -14 -8 -25 -8 -31 -2 -9 9 41 42 65 42
6 0 39 30 75 67 69 72 65 60 96 258 6 44 15 86 19 92 4 6 3 14 -3 18 -5 3 -10
19 -10 35 0 16 -5 32 -11 36 -7 4 -8 18 -4 38 4 17 9 74 11 126 4 90 9 180 17
295 7 90 9 296 4 302 -14 13 -27 -45 -28 -121 -1 -90 -14 -124 -43 -113 -21 8
-21 35 1 59 15 17 15 22 -1 76 -21 67 -19 169 3 164 27 -6 41 20 41 74 0 29 5
56 10 59 24 15 8 58 -45 122 -30 37 -51 70 -45 73 5 3 -15 43 -45 88 -53 78
-64 102 -47 102 10 -1 52 -37 52 -45 0 -4 10 -19 21 -33 l22 -27 -6 33 c-4 19
-16 46 -27 62 -43 61 -15 41 69 -50 l89 -94 1 101 c1 56 6 139 11 185 9 80 9
83 -14 103 -13 11 -34 36 -46 55 -13 19 -40 54 -59 76 -20 23 -54 64 -76 90
-22 26 -49 58 -60 69 -86 91 -112 145 -62 129 20 -6 20 -6 4 10 -9 9 -24 30
-34 46 -9 17 -21 30 -25 30 -4 0 -8 5 -8 11 0 6 -10 24 -22 39 -49 61 -108
148 -108 159 0 6 -4 11 -9 11 -5 0 -12 8 -15 18 -4 9 -20 33 -37 52 -44 50
-89 116 -89 132 0 8 -6 20 -12 27 -10 11 -10 14 0 18 6 3 12 18 12 34 0 19 5
29 15 29 8 0 15 -7 15 -16 0 -20 79 -184 88 -183 25 4 42 -3 42 -17 0 -9 8
-24 18 -33 9 -9 22 -25 28 -36 6 -11 15 -20 20 -20 17 0 34 -16 34 -31 0 -9
11 -30 25 -48 14 -18 25 -38 25 -44 0 -7 4 -12 9 -12 15 0 -8 93 -33 130 -13
19 -45 60 -72 89 -27 29 -53 61 -58 70 -5 9 -14 21 -20 27 -6 6 -29 33 -51 60
-22 27 -50 58 -62 70 -26 24 -30 54 -8 54 8 0 15 -3 15 -7z m4540 -77 c0 -18
-15 -36 -31 -36 -22 0 -24 11 -7 28 11 11 38 17 38 8z m-4658 -113 c44 -43 87
-85 96 -94 10 -8 33 -35 52 -59 19 -24 46 -57 60 -74 14 -17 46 -53 72 -81 72
-76 98 -108 104 -128 8 -26 -2 -32 -21 -13 -9 9 -20 16 -24 16 -3 0 -14 12
-23 28 -9 15 -48 60 -87 101 -39 41 -71 76 -71 78 0 6 -79 91 -109 117 -70 63
-161 159 -161 172 0 31 36 10 112 -63z m4998 -30 c0 -9 -168 -170 -220 -210
-25 -19 -70 -58 -100 -87 -70 -65 -117 -98 -124 -87 -6 10 57 81 72 81 5 0 52
42 104 93 53 50 113 106 134 122 21 17 55 45 74 62 32 30 60 42 60 26z m-3994
-358 c-4 -19 -11 -33 -17 -30 -10 7 -12 65 -2 91 11 30 27 -19 19 -61z m3174
-6 c0 -5 -4 -9 -10 -9 -5 0 -10 7 -10 16 0 8 5 12 10 9 6 -3 10 -10 10 -16z
m90 -287 c0 -10 -41 -35 -47 -28 -7 7 20 35 35 36 6 0 12 -3 12 -8z m-2556
-318 c9 -22 8 -24 -9 -24 -8 0 -15 9 -15 20 0 24 15 27 24 4z m-1124 -303 c0
-18 -99 90 -118 128 -7 14 16 -5 52 -44 36 -38 66 -77 66 -84z m1160 108 c0
-5 -4 -9 -10 -9 -5 0 -10 7 -10 16 0 8 5 12 10 9 6 -3 10 -10 10 -16z m-1250
-218 c0 -110 -3 -132 -17 -147 -17 -16 -18 -16 -21 -1 -2 10 2 48 9 85 7 37
13 90 14 117 2 62 4 75 10 75 3 0 5 -58 5 -129z m3177 -213 c-3 -8 -6 -5 -6 6
-1 11 2 17 5 13 3 -3 4 -12 1 -19z m-3210 -80 c-2 -13 -4 -5 -4 17 -1 22 1 32
4 23 2 -10 2 -28 0 -40z m23 -159 c0 -32 -13 -44 -29 -26 -10 13 -13 84 -4
100 8 14 33 -43 33 -74z m2821 50 c-12 -32 -49 -74 -58 -66 -8 8 13 49 40 77
23 26 31 21 18 -11z m-2674 -56 c-3 -10 -5 -4 -5 12 0 17 2 24 5 18 2 -7 2
-21 0 -30z m1583 -14 c0 -10 -4 -19 -10 -19 -5 0 -10 12 -10 26 0 14 4 23 10
19 6 -3 10 -15 10 -26z m1030 -22 c0 -7 -13 -34 -30 -60 -16 -26 -30 -50 -30
-53 0 -2 -22 -38 -50 -78 -27 -40 -50 -81 -50 -90 0 -17 -25 -22 -35 -6 -3 5
8 30 24 54 17 25 31 47 31 51 0 3 18 33 40 65 22 32 40 62 40 65 0 4 9 20 21
36 22 31 39 38 39 16z m-913 -63 c-3 -3 -12 -4 -19 -1 -8 3 -5 6 6 6 11 1 17
-2 13 -5z m-1697 -82 c0 -13 -4 -20 -10 -17 -5 3 -10 21 -10 38 0 24 3 28 10
17 5 -8 10 -25 10 -38z m-166 -34 c9 -35 7 -136 -3 -142 -21 -13 -44 137 -24
157 12 12 21 7 27 -15z m156 -115 c0 -35 -3 -44 -10 -33 -16 25 -11 80 7 80 2
0 3 -21 3 -47z m1670 -482 c0 -12 -51 -73 -112 -135 -27 -27 -48 -52 -48 -58
0 -5 -4 -6 -10 -3 -5 3 -10 12 -10 18 0 10 75 100 110 132 6 6 21 20 32 33 22
23 38 28 38 13z m50 -99 c0 -5 -6 -16 -13 -27 -16 -20 -31 -7 -21 19 6 16 34
23 34 8z m377 -77 c35 -36 63 -69 63 -75 0 -18 -27 -11 -48 13 -39 42 -102
118 -102 123 0 17 33 -6 87 -61z m123 -135 c0 -5 -4 -10 -10 -10 -5 0 -10 5
-10 10 0 6 5 10 10 10 6 0 10 -4 10 -10z m108 -93 c2 -10 -3 -17 -12 -17 -9 0
-16 2 -16 4 0 2 -3 12 -6 21 -5 13 -2 16 12 13 10 -2 20 -11 22 -21z m139
-112 c8 -9 13 -18 10 -21 -6 -7 -47 18 -47 28 0 13 21 9 37 -7z m73 -75 c0 -5
-4 -10 -10 -10 -5 0 -10 5 -10 10 0 6 5 10 10 10 6 0 10 -4 10 -10z m51 -27
c51 -42 78 -72 69 -78 -5 -3 -25 8 -42 24 -18 17 -39 31 -45 31 -7 0 -13 9
-13 20 0 24 4 25 31 3z m115 -97 c8 -8 14 -20 14 -26 0 -6 7 -13 15 -16 17 -7
20 -24 5 -24 -12 0 -70 59 -70 71 0 14 20 11 36 -5z m114 -114 c0 -5 12 -15
28 -23 28 -14 112 -91 112 -103 0 -23 -43 4 -103 64 -42 42 -63 70 -53 70 9 0
16 -4 16 -8z m-2512 -125 c6 -7 14 -33 18 -57 4 -25 12 -51 18 -59 15 -19 15
-79 -1 -92 -9 -8 -13 -8 -13 0 0 6 1 13 3 14 1 2 -4 11 -10 19 -7 8 -15 30
-17 49 -3 19 -10 50 -16 69 -18 61 -9 90 18 57z m342 -82 c-14 -17 -30 -11
-30 10 0 15 33 26 38 13 2 -5 -2 -15 -8 -23z m-405 -272 c-2 -10 -4 -28 -4
-41 -1 -20 -3 -21 -15 -9 -17 16 -10 67 9 67 7 0 12 -8 10 -17z m3225 -89 c0
-16 -16 -19 -25 -4 -8 13 4 32 16 25 5 -4 9 -13 9 -21z m-3224 -69 c-4 -14
-11 -25 -16 -25 -11 0 -14 83 -3 94 12 11 26 -42 19 -69z m3284 22 c0 -5 6 -7
14 -4 7 3 25 -6 39 -19 14 -13 30 -24 35 -24 15 0 22 -28 9 -33 -13 -4 -97 51
-97 65 0 4 -7 8 -15 8 -8 0 -15 2 -15 4 0 2 -3 12 -6 21 -6 15 -4 15 15 4 11
-8 21 -18 21 -22z m-3267 -104 c6 -32 1 -43 -17 -43 -18 0 -26 33 -14 54 13
24 25 20 31 -11z m-409 -103 c4 -44 3 -60 -4 -50 -9 14 -15 129 -6 119 2 -2 6
-33 10 -69z m4423 28 c-3 -8 -6 -5 -6 6 -1 11 2 17 5 13 3 -3 4 -12 1 -19z
m-125 -212 c9 -14 10 -50 2 -59 -10 -10 -42 11 -61 39 -14 22 -14 27 -2 35 16
10 50 2 61 -15z m-3952 -176 c0 -5 -2 -10 -4 -10 -3 0 -8 5 -11 10 -3 6 -1 10
4 10 6 0 11 -4 11 -10z m-211 -213 c-5 -18 -9 -45 -10 -62 0 -26 -2 -27 -9
-10 -10 23 -13 99 -4 108 3 3 12 3 19 1 10 -4 11 -14 4 -37z m25 -461 c-3 -9
-16 -16 -28 -16 -21 1 -21 1 3 21 26 22 35 20 25 -5z"/>
<path d="M1606 5696 c3 -8 12 -17 21 -20 11 -5 13 -2 9 10 -3 8 -6 18 -6 20 0
2 -7 4 -15 4 -8 0 -12 -6 -9 -14z"/>
<path d="M1373 5625 c0 -8 4 -15 9 -15 4 0 8 4 8 9 0 6 -4 12 -8 15 -5 3 -9
-1 -9 -9z"/>
<path d="M4999 5551 c-13 -11 -20 -23 -16 -27 4 -4 17 2 29 14 28 28 18 38
-13 13z"/>
<path d="M1720 5093 c0 -16 5 -35 10 -43 7 -11 10 -4 10 28 0 23 -4 42 -10 42
-5 0 -10 -12 -10 -27z"/>
<path d="M4467 5023 c-5 -7 -5 -13 -1 -13 4 0 -1 -9 -11 -20 -18 -20 -11 -27
13 -11 8 4 12 19 10 32 -2 17 -6 20 -11 12z"/>
<path d="M1710 5009 c0 -5 5 -7 10 -4 6 3 10 8 10 11 0 2 -4 4 -10 4 -5 0 -10
-5 -10 -11z"/>
<path d="M2181 4963 c26 -35 60 -64 70 -61 12 4 -56 78 -72 78 -8 0 -7 -6 2
-17z"/>
<path d="M1970 4927 c0 -8 21 -34 46 -58 25 -24 51 -50 57 -57 7 -8 25 -26 40
-40 163 -154 191 -185 173 -190 -13 -3 -37 17 -85 68 -111 122 -254 260 -268
260 -10 0 -12 -21 -7 -103 4 -60 3 -111 -3 -123 -5 -10 -8 -40 -5 -65 3 -41
12 -56 83 -134 44 -49 87 -101 97 -117 9 -15 22 -28 29 -28 7 0 13 -6 13 -14
0 -21 146 -160 225 -214 47 -32 69 -53 67 -65 -2 -9 2 -17 8 -17 6 0 8 5 5 10
-3 6 1 10 9 10 9 0 22 -12 30 -27 30 -58 256 -272 349 -331 45 -28 107 -92 90
-92 -5 0 -30 14 -56 30 -26 17 -53 30 -60 30 -7 0 -18 5 -25 12 -8 8 -12 8
-12 1 0 -18 -52 -1 -57 18 -4 14 -9 16 -23 9 -10 -6 -44 -10 -75 -10 -49 0
-70 -8 -183 -66 -70 -37 -134 -72 -142 -80 -8 -7 -35 -22 -60 -33 -48 -22
-208 -123 -219 -137 -3 -5 -15 -9 -26 -8 -11 0 -24 -2 -30 -5 -5 -3 -15 -6
-22 -7 -6 -1 -22 -10 -35 -19 l-23 -17 25 7 c21 6 23 5 12 -6 -7 -8 -27 -19
-45 -25 -30 -10 -32 -14 -35 -62 -3 -56 -8 -62 -27 -35 -13 17 -35 10 -35 -11
0 -7 10 -23 21 -35 32 -34 50 -183 26 -209 -10 -10 -17 -22 -17 -25 0 -12 45
-8 65 6 11 7 40 19 65 27 25 7 50 17 55 20 6 4 27 13 47 19 41 14 71 41 45 41
-9 0 -19 -4 -22 -10 -8 -12 -52 -13 -59 -1 -7 10 67 61 89 61 9 0 15 9 15 23
0 26 36 51 89 62 19 4 50 16 68 26 18 11 50 28 71 40 50 29 61 38 58 52 -1 7
-1 9 1 5 9 -16 34 -7 94 32 34 22 72 40 84 40 12 0 34 13 50 30 22 23 32 27
46 20 25 -14 25 -15 60 35 18 25 40 45 50 45 10 0 31 11 47 25 17 14 32 25 35
25 17 0 183 112 222 148 36 35 45 51 45 77 0 19 -5 37 -11 41 -7 4 -9 22 -6
45 4 34 1 42 -21 60 -15 11 -27 28 -27 37 0 11 -10 18 -30 20 -43 5 -141 84
-129 104 3 4 -16 8 -42 8 -44 0 -49 3 -98 57 -114 127 -355 363 -361 353 -4
-6 -12 -5 -21 5 -9 8 -24 15 -35 15 -29 0 -35 28 -10 51 11 11 21 23 21 27 0
4 -25 30 -55 57 -30 28 -92 86 -137 130 -163 156 -188 176 -188 152z m560
-907 c0 -5 -2 -10 -4 -10 -3 0 -8 5 -11 10 -3 6 -1 10 4 10 6 0 11 -4 11 -10z
m530 -196 c0 -8 -4 -12 -10 -9 -5 3 -10 10 -10 16 0 5 5 9 10 9 6 0 10 -7 10
-16z m-1175 -854 c-3 -5 -10 -10 -16 -10 -5 0 -9 5 -9 10 0 6 7 10 16 10 8 0
12 -4 9 -10z"/>
<path d="M1873 4675 c-8 -35 -7 -47 3 -56 12 -9 14 -1 14 45 0 31 -1 56 -3 56
-2 0 -8 -20 -14 -45z"/>
<path d="M1670 4593 c0 -35 15 -52 24 -27 3 9 -1 25 -9 37 -15 21 -15 21 -15
-10z"/>
<path d="M1595 4450 c-3 -5 -1 -10 4 -10 6 0 11 5 11 10 0 6 -2 10 -4 10 -3 0
-8 -4 -11 -10z"/>
<path d="M1980 4426 c14 -13 27 -22 29 -20 7 6 -31 44 -43 44 -6 0 1 -11 14
-24z"/>
<path d="M1900 4382 c0 -4 4 -12 9 -17 12 -14 -5 -55 -23 -55 -22 0 -29 -35
-21 -117 5 -51 3 -78 -5 -88 -8 -10 -10 -51 -6 -138 3 -68 1 -151 -4 -183 -11
-65 -6 -94 16 -94 18 0 18 -14 0 -43 -13 -20 -36 -169 -36 -230 0 -24 2 -25
29 -16 17 6 36 18 43 26 12 15 11 15 -9 2 -12 -7 -26 -9 -30 -5 -4 5 -2 11 6
14 8 3 25 16 38 30 13 14 47 34 75 44 28 9 59 25 68 33 21 19 90 55 106 55 6
0 19 9 28 19 10 11 24 17 31 15 7 -3 19 3 26 13 12 16 33 29 104 67 11 6 41
28 67 48 49 40 69 49 47 21 -12 -15 -12 -16 3 -10 10 3 20 3 22 -2 3 -4 -17
-18 -44 -31 -28 -13 -50 -27 -50 -32 0 -5 12 -2 28 5 15 7 51 24 80 38 28 13
52 26 52 30 0 14 -48 50 -55 40 -3 -6 -11 -11 -18 -11 -8 0 -8 3 1 12 9 9 1
22 -33 55 -25 24 -49 43 -53 43 -4 0 -20 12 -36 27 -16 15 -38 28 -48 28 -10
1 -19 4 -21 6 -32 43 -207 214 -222 217 -26 4 -44 23 -27 29 21 8 13 30 -19
57 -41 35 -60 33 -26 -2 34 -35 36 -54 3 -23 l-25 23 -6 -38 c-9 -56 -14 -66
-25 -59 -14 9 -12 55 3 85 11 21 11 29 -2 50 -15 23 -15 24 2 11 23 -18 22 -5
-4 30 -19 28 -39 38 -39 21z m32 -264 c-6 -47 -25 -91 -35 -81 -10 9 -8 41 2
61 6 9 12 30 16 45 9 43 24 22 17 -25z m38 -178 c0 -11 -4 -20 -10 -20 -5 0
-10 9 -10 20 0 11 5 20 10 20 6 0 10 -9 10 -20z m-35 -82 c-15 -49 -39 -97
-47 -92 -17 11 -7 51 25 102 14 21 29 14 22 -10z m85 -93 c0 -8 -4 -15 -10
-15 -5 0 -10 7 -10 15 0 8 5 15 10 15 6 0 10 -7 10 -15z"/>
<path d="M2670 4282 c0 -14 76 -92 90 -92 8 0 8 6 0 20 -6 11 -15 20 -21 20
-6 0 -24 14 -40 31 -16 17 -29 27 -29 21z"/>
<path d="M3579 3953 c-1 -5 -1 -12 0 -16 1 -4 -12 -19 -29 -33 -16 -14 -30
-34 -30 -45 0 -26 17 -24 31 4 7 12 23 35 36 50 13 16 21 33 17 38 -6 11 -24
12 -25 2z"/>
<path d="M3336 3888 c13 -23 47 -58 57 -58 11 0 -44 68 -56 69 -5 1 -5 -5 -1
-11z"/>
<path d="M3617 3885 c-4 -8 -2 -17 3 -20 6 -4 10 -4 10 -1 0 2 3 11 6 20 3 9
2 16 -4 16 -5 0 -12 -7 -15 -15z"/>
<path d="M2560 3871 c0 -21 24 -61 37 -61 19 0 16 8 -12 42 -14 16 -25 25 -25
19z"/>
<path d="M3296 3835 c4 -8 10 -15 15 -15 5 0 9 7 9 15 0 8 -7 15 -15 15 -9 0
-12 -6 -9 -15z"/>
<path d="M3139 3788 c-1 -29 -1 -59 0 -65 1 -7 -5 -13 -14 -13 -8 0 -15 -6
-15 -14 0 -19 17 -29 25 -16 3 5 15 10 26 10 18 0 19 6 18 63 -2 60 -12 87
-30 87 -5 0 -10 -24 -10 -52z"/>
<path d="M3215 3760 c7 -66 -1 -77 -70 -109 -109 -50 -195 -104 -195 -123 0
-17 29 -7 35 12 3 11 13 20 21 20 8 0 22 4 32 9 42 22 131 61 139 61 4 0 19 9
33 20 14 11 32 20 41 20 8 0 25 10 37 23 l22 23 -51 50 -50 49 6 -55z"/>
<path d="M2670 3770 c0 -5 5 -10 10 -10 6 0 10 5 10 10 0 6 -4 10 -10 10 -5 0
-10 -4 -10 -10z"/>
<path d="M2630 3730 c0 -5 7 -10 16 -10 8 0 12 5 9 10 -3 6 -10 10 -16 10 -5
0 -9 -4 -9 -10z"/>
<path d="M3565 3689 c-10 -15 3 -25 16 -12 7 7 7 13 1 17 -6 3 -14 1 -17 -5z"/>
<path d="M3305 3528 c-14 -21 -14 -24 0 -34 8 -6 15 -19 15 -28 0 -23 9 -20
36 12 28 31 31 57 8 66 -28 11 -43 7 -59 -16z"/>
<path d="M3698 3531 c12 -10 22 -23 22 -29 0 -6 9 -16 19 -22 25 -13 41 -13
21 0 -12 8 -13 12 -2 19 10 6 4 14 -23 30 -45 26 -66 28 -37 2z"/>
<path d="M3836 3485 c25 -19 40 -19 20 0 -8 8 -20 15 -27 15 -7 0 -4 -6 7 -15z"/>
<path d="M4030 3322 c0 -16 80 -85 88 -77 7 6 -46 63 -70 76 -10 5 -18 6 -18
1z"/>
<path d="M4130 3232 c0 -11 63 -82 73 -82 13 0 7 15 -16 40 -31 35 -57 54 -57
42z"/>
<path d="M4070 3220 c0 -5 7 -10 16 -10 8 0 12 5 9 10 -3 6 -10 10 -16 10 -5
0 -9 -4 -9 -10z"/>
<path d="M4116 3183 c-11 -12 -6 -21 30 -48 43 -33 54 -27 23 14 -23 31 -43
44 -53 34z"/>
<path d="M2280 3150 c0 -5 4 -10 9 -10 6 0 13 5 16 10 3 6 -1 10 -9 10 -9 0
-16 -4 -16 -10z"/>
<path d="M1575 3140 c-3 -5 1 -10 10 -10 9 0 13 5 10 10 -3 6 -8 10 -10 10 -2
0 -7 -4 -10 -10z"/>
<path d="M2320 3000 c0 -5 5 -10 10 -10 6 0 10 5 10 10 0 6 -4 10 -10 10 -5 0
-10 -4 -10 -10z"/>
<path d="M4530 2880 c12 -16 28 -30 37 -30 13 0 14 2 2 18 -36 46 -71 57 -39
12z"/>
<path d="M4460 2746 c0 -8 68 -74 100 -96 19 -13 37 -27 40 -30 25 -27 60 -51
60 -42 0 7 -15 24 -32 39 -18 16 -52 47 -74 70 -23 24 -46 43 -53 43 -6 0 -11
5 -11 10 0 6 -7 10 -15 10 -8 0 -15 -2 -15 -4z"/>
<path d="M4669 2691 c6 -10 38 -43 71 -73 33 -30 60 -62 60 -71 0 -10 7 -17
15 -17 8 0 15 7 15 15 0 9 -7 18 -15 21 -8 4 -15 14 -15 24 0 10 -15 29 -32
42 -18 12 -46 35 -62 50 -33 32 -51 37 -37 9z"/>
<path d="M4865 2600 c3 -5 8 -10 11 -10 2 0 4 5 4 10 0 6 -5 10 -11 10 -5 0
-7 -4 -4 -10z"/>
<path d="M4695 2540 c3 -5 8 -10 11 -10 2 0 4 5 4 10 0 6 -5 10 -11 10 -5 0
-7 -4 -4 -10z"/>
<path d="M1487 2482 c-22 -24 -21 -32 1 -32 21 0 42 18 42 37 0 19 -24 16 -43
-5z"/>
<path d="M5010 2376 c0 -8 9 -21 20 -29 11 -8 37 -30 58 -49 36 -33 73 -58 87
-58 3 0 -1 14 -10 30 -9 17 -20 30 -24 30 -5 0 -31 20 -58 45 -49 46 -73 56
-73 31z"/>
<path d="M5440 2030 c0 -5 5 -10 10 -10 6 0 10 5 10 10 0 6 -4 10 -10 10 -5 0
-10 -4 -10 -10z"/>
<path d="M5320 2002 c0 -5 11 -19 25 -32 19 -18 25 -20 25 -8 0 8 -8 22 -18
31 -20 19 -32 22 -32 9z"/>
<path d="M5499 1976 c17 -21 51 -40 51 -29 0 16 -16 31 -40 38 -23 7 -24 6
-11 -9z"/>
<path d="M1557 1943 c-11 -10 -8 -61 3 -68 6 -4 10 10 10 34 0 42 -2 46 -13
34z"/>
<path d="M1587 1934 c-3 -5 -2 -25 2 -44 6 -30 8 -32 14 -14 8 23 -6 73 -16
58z"/>
<path d="M5540 1870 c0 -5 4 -10 9 -10 6 0 13 5 16 10 3 6 -1 10 -9 10 -9 0
-16 -4 -16 -10z"/>
<path d="M5580 1849 c0 -5 5 -7 10 -4 6 3 10 8 10 11 0 2 -4 4 -10 4 -5 0 -10
-5 -10 -11z"/>
<path d="M1526 1714 c-8 -22 1 -31 16 -16 9 9 9 15 1 23 -7 7 -12 5 -17 -7z"/>
</g>
</svg>
