<svg version="1.1" id="Layer_1" xmlns="http://www.w3.org/2000/svg" xmlns:xlink="http://www.w3.org/1999/xlink" x="0px" y="0px"
	 width="100%" viewBox="0 0 992 688" enable-background="new 0 0 992 688" xml:space="preserve">
<path fill="#000000" opacity="1.000000" stroke="none" 
	d="
M562.428467,689.000000 
	C564.649963,680.028625 565.346069,670.720703 566.742371,661.532593 
	C569.972595,640.275574 575.212585,619.531311 582.898071,599.440552 
	C585.432739,592.814514 592.083801,591.381104 598.776978,595.769409 
	C612.883362,605.017944 625.330078,616.486328 639.229248,626.010925 
	C639.924805,626.487549 640.747131,626.778992 641.310669,627.057800 
	C640.586914,628.199829 640.377380,628.712646 640.258240,628.692444 
	C631.224426,627.161987 621.984558,629.014221 613.000732,627.175049 
	C601.117249,624.742371 597.989075,625.691650 592.558716,636.574341 
	C589.483704,642.736816 585.903748,648.410034 581.792236,653.856934 
	C577.015076,660.185791 575.821411,666.564697 581.158752,673.449463 
	C583.944336,677.042603 582.918579,679.815857 578.809082,681.828796 
	C576.418823,682.999573 573.847473,683.621460 571.193420,684.098328 
	C569.038147,684.485657 566.439331,685.208191 567.839600,688.786865 
	C566.285645,689.000000 564.571289,689.000000 562.428467,689.000000 
z"/>
<path fill="#000000" opacity="1.000000" stroke="none" 
	d="
M617.468628,689.000000 
	C624.704712,684.873169 632.505066,686.798889 640.651978,688.815918 
	C633.312439,689.000000 625.624817,689.000000 617.468628,689.000000 
z"/>
<path fill="#000000" opacity="1.000000" stroke="none" 
	d="
M327.379761,165.211090 
	C331.574738,162.556290 334.420746,162.393051 336.584778,167.497299 
	C338.410828,171.804413 341.952301,174.989761 346.023804,177.557938 
	C355.143250,183.310257 357.032623,190.190643 352.494934,199.926407 
	C347.884247,209.818863 350.180511,219.453934 353.722504,229.001038 
	C354.242920,230.403732 355.149017,231.824661 356.985931,231.557892 
	C358.591278,231.324738 359.919250,230.152863 360.135925,228.674744 
	C361.741486,217.723328 370.287170,215.282455 379.020477,213.029968 
	C382.310944,212.181305 385.619354,215.614304 384.801819,219.648514 
	C383.615448,225.502747 382.320282,231.382980 379.480316,236.758377 
	C377.871857,239.802826 375.640198,241.258133 372.153320,240.014801 
	C369.569244,239.093384 366.997345,239.284729 364.193146,239.994385 
	C364.209381,242.530777 365.530640,244.016113 367.571442,244.403061 
	C375.848419,245.972443 382.605347,251.392517 390.817932,253.258057 
	C395.370636,254.292236 396.944733,254.082336 397.390961,249.388580 
	C398.103607,241.891785 397.587677,234.415726 395.803345,227.088028 
	C393.886536,219.216354 397.676514,209.777405 404.929199,206.287766 
	C413.248596,202.284897 419.712372,195.465347 428.112244,191.624008 
	C431.744568,189.962936 435.184937,187.889221 439.117065,186.934280 
	C440.835907,186.516830 442.224335,185.640091 442.642273,183.798065 
	C443.082520,181.857452 441.888031,180.639511 440.492645,179.638428 
	C428.830383,171.271637 416.707275,163.825485 402.688232,159.918121 
	C399.696655,159.084335 396.179871,158.573212 394.107635,154.627289 
	C402.583099,154.444000 409.586365,157.110703 416.247375,160.765396 
	C419.220123,162.396454 421.373840,163.022934 424.804260,160.903107 
	C429.964142,157.714493 435.330109,160.385147 439.642670,163.538208 
	C443.382568,166.272598 447.002502,169.228287 450.726410,172.025024 
	C454.906921,175.164658 456.727356,179.376923 454.656525,184.314423 
	C452.754333,188.849869 454.873444,191.127701 458.300354,193.257614 
	C466.506042,198.357635 474.590485,203.656982 482.870605,208.631699 
	C489.052643,212.345886 494.648163,216.798523 500.019989,221.527756 
	C506.354828,227.104752 513.604431,231.178467 521.133179,234.743881 
	C526.273132,237.178040 531.634216,234.365723 536.859863,234.555634 
	C547.813477,234.953644 558.655518,232.921753 569.592041,233.469681 
	C576.669617,233.824265 583.586426,231.891190 590.760925,232.310349 
	C594.605225,232.534927 597.042908,234.906647 600.382874,235.746490 
	C612.177612,238.712357 623.831482,242.276062 634.026733,249.320831 
	C644.166382,256.327118 651.434448,265.951385 659.130127,275.884705 
	C654.790466,276.068634 650.495239,272.973083 646.767639,267.514862 
	C639.693420,257.156128 629.577942,250.806351 618.108826,246.072891 
	C631.549927,259.365601 645.329041,272.286255 657.356262,286.911926 
	C655.658325,288.342133 654.585327,287.646545 653.590637,287.125854 
	C647.453735,283.913452 641.484863,280.384460 636.131470,275.990601 
	C631.220947,271.960236 624.765320,271.448090 619.559631,268.112274 
	C613.488953,264.222198 606.941345,262.157074 599.644226,264.316589 
	C598.285461,264.718719 597.035950,264.305695 595.834290,263.593109 
	C585.209717,257.292816 573.643188,253.801956 561.475403,252.109497 
	C560.670227,251.997467 559.804260,251.921509 559.130737,250.199249 
	C567.154541,247.054230 574.799255,251.072205 582.553711,251.163452 
	C575.375122,247.334091 567.536133,245.950882 559.703064,246.002838 
	C553.968750,246.040863 548.229492,247.863098 542.528320,249.060623 
	C540.460083,249.495056 537.819031,250.019257 537.604614,252.565063 
	C537.388428,255.131989 540.026184,255.954803 541.892029,256.905365 
	C555.212646,263.691559 559.767334,275.366882 558.966614,289.275055 
	C558.509827,297.210144 556.247559,305.110321 552.227356,312.121735 
	C544.463135,325.662872 539.639893,340.385864 534.336853,354.928406 
	C533.297729,357.778107 532.536865,360.728668 533.363159,363.736816 
	C534.083069,366.357422 535.289368,369.226715 538.221863,369.566315 
	C546.377747,370.510651 553.702332,374.737488 561.954590,375.234161 
	C564.102661,375.363434 566.227295,375.886108 568.403503,375.570496 
	C569.553345,375.403748 571.325562,374.912994 571.667358,375.938873 
	C573.257202,380.709839 577.572876,379.692688 581.346863,380.378876 
	C579.679688,386.455933 583.424194,389.254852 587.604126,391.589630 
	C596.067810,396.317169 598.430359,395.923279 606.138733,389.131165 
	C607.593079,387.849731 608.818054,386.158295 611.174133,385.796631 
	C612.722168,387.962799 611.737122,389.630035 610.249878,391.011505 
	C608.792969,392.364807 607.044861,393.399200 605.528076,394.694794 
	C602.647278,397.155518 600.017700,399.639679 603.296570,403.774170 
	C604.560547,405.368011 604.359802,407.544983 604.308167,409.575043 
	C604.174072,414.842163 604.896606,415.503754 610.082397,413.945282 
	C615.976379,412.174042 621.777588,410.084076 627.581665,408.027130 
	C632.945557,406.126221 638.465210,404.888916 644.057861,403.968933 
	C646.095520,403.633759 648.225281,403.288452 651.640076,404.910950 
	C638.146667,407.285400 626.200256,410.303131 614.059387,415.362274 
	C623.164917,421.588074 613.624695,422.706329 611.828125,425.885254 
	C612.092285,426.517120 612.166870,427.065186 612.478027,427.377686 
	C614.050842,428.957245 617.196960,430.435944 615.355164,432.863525 
	C613.396362,435.445374 609.689941,435.398071 607.249451,433.303986 
	C602.650452,429.357910 597.080566,427.874908 591.685913,425.701324 
	C586.927429,423.784027 581.866333,423.033600 577.518799,424.538391 
	C568.894836,427.523376 559.551392,427.859009 551.347961,432.420959 
	C545.120056,435.884308 541.343201,434.310059 533.683105,426.390472 
	C540.457520,421.808685 547.566284,418.683289 555.699463,418.504333 
	C562.856812,418.346832 570.022827,418.609619 577.185242,418.645935 
	C583.661804,418.678802 590.188599,418.143555 596.362549,420.887634 
	C597.361145,421.331512 598.556396,421.847382 599.987549,420.696899 
	C597.031982,416.499512 597.030823,411.538910 596.921631,406.632355 
	C596.849609,403.396881 595.799072,401.643158 592.267090,400.763641 
	C584.760010,398.894226 579.441162,393.141663 573.858582,388.363373 
	C567.489197,382.911621 560.313110,380.089966 552.463928,378.307953 
	C549.120361,377.548859 547.850464,379.235382 548.181091,382.469543 
	C548.451477,385.115265 548.912598,387.782043 548.785828,390.415253 
	C548.681519,392.582733 547.778381,394.941803 545.227234,395.227386 
	C542.854309,395.493011 542.646606,393.044617 541.878052,391.474915 
	C540.916443,389.510864 541.214783,386.815674 538.775879,385.707916 
	C536.889709,386.740356 537.392151,388.435486 537.132080,389.832642 
	C536.727722,392.005890 535.667114,393.700958 533.371948,393.893158 
	C530.959595,394.095215 530.385376,391.982513 529.988831,390.242767 
	C528.879517,385.376221 528.009827,380.455627 526.964233,375.573761 
	C526.547791,373.629272 526.165527,371.555603 523.632385,371.132111 
	C521.080444,370.705505 519.577698,372.076447 518.359619,374.066589 
	C517.753296,375.057281 517.095276,376.046570 516.301208,376.885590 
	C514.851990,378.416718 513.134888,379.522522 511.000122,378.256256 
	C508.755402,376.924744 509.941925,375.121429 510.527985,373.416046 
	C512.598206,367.391724 512.264771,366.487335 506.452759,363.815613 
	C501.309357,361.451233 496.063660,359.310181 490.908813,356.969849 
	C474.595337,349.563538 459.007172,351.919586 444.249573,360.973694 
	C431.566864,368.754791 418.771240,375.991760 404.262939,380.007874 
	C381.005188,386.446014 358.016205,393.903046 334.630737,399.809326 
	C324.900299,402.266876 316.198181,406.340118 307.546997,410.875183 
	C286.731506,421.787048 264.452515,428.504547 241.831360,434.307373 
	C220.690521,439.730499 199.283218,443.551514 177.511017,445.324585 
	C172.733749,445.713623 169.752258,448.715332 166.161606,452.070557 
	C158.521927,459.209320 153.470673,468.717743 144.488617,474.572784 
	C138.848190,478.249603 134.886200,483.643707 132.058060,489.901794 
	C128.852600,496.994812 124.193832,503.001862 117.446556,507.207001 
	C115.645470,508.329468 113.892990,509.280914 111.925987,507.942078 
	C110.047798,506.663696 110.101357,504.816437 110.278236,502.632477 
	C110.803291,496.149719 113.046471,490.370117 116.343597,484.864166 
	C117.590431,482.782013 119.208908,480.783020 119.289360,477.299591 
	C113.855087,479.727234 108.590210,480.186737 104.824951,485.965759 
	C98.041306,496.377472 89.973343,505.977173 82.127556,515.661377 
	C78.359879,520.311890 75.662903,520.367737 69.377983,517.114136 
	C71.681351,511.350372 78.036522,506.298126 72.075409,498.621460 
	C72.662498,498.703278 73.249588,498.785095 73.836678,498.866882 
	C73.402802,498.711823 72.908051,498.335999 72.544548,498.436218 
	C69.332718,499.321808 65.744057,499.830139 63.917622,496.699615 
	C61.987438,493.391296 65.587547,491.237396 67.460060,489.316254 
	C72.800583,483.836975 78.524796,478.727844 84.166023,473.547089 
	C87.167198,470.790863 91.216942,468.891510 91.251755,463.902954 
	C91.255882,463.311798 92.272964,462.255157 92.877457,462.212006 
	C101.269951,461.612793 104.853935,453.817291 111.100250,449.967682 
	C119.990288,444.488800 127.517853,436.830444 135.954849,430.815002 
	C152.967712,418.685089 170.880783,407.758728 191.929794,403.182587 
	C207.131393,399.877747 221.127548,392.976715 235.104187,386.274506 
	C254.998077,376.734833 275.887451,369.960785 296.989441,363.718903 
	C306.556824,360.888916 315.828278,357.435516 324.478424,352.105774 
	C338.706787,343.338959 354.554413,337.908020 369.910675,331.475494 
	C378.306671,327.958527 387.383636,325.495880 394.033020,318.734222 
	C398.817383,313.869049 403.138947,308.550323 407.892609,303.652954 
	C417.129425,294.136932 428.288239,287.750732 440.890656,283.696503 
	C443.978455,282.703125 448.659851,282.832397 448.613892,278.082245 
	C448.571686,273.723816 444.316803,272.189056 441.134796,271.965637 
	C432.481049,271.358002 425.290558,266.502014 417.110504,264.647278 
	C413.509674,263.830780 411.361084,264.617889 410.036102,268.069824 
	C408.388031,272.363464 405.094543,273.567596 400.761017,272.744080 
	C392.473480,271.169159 383.823517,270.819580 376.827301,265.116943 
	C374.810425,263.472961 373.137604,261.832825 373.137634,258.986084 
	C373.137665,254.117340 369.772919,250.819519 364.689423,251.526947 
	C361.196899,252.012985 359.659302,250.311951 358.429443,247.882782 
	C354.385376,239.895020 346.838409,236.368942 339.356476,232.854324 
	C336.619720,231.568741 333.713776,233.003326 331.136169,234.024551 
	C310.629364,242.149139 289.226959,244.453369 267.401459,243.983170 
	C257.874664,243.777924 248.709518,241.006180 239.341492,239.684555 
	C224.756302,237.626907 212.102707,230.458710 198.878326,224.812805 
	C193.690292,222.597839 193.197968,218.685013 197.359390,214.697205 
	C202.400772,209.866165 207.212341,204.696945 213.891602,201.990005 
	C214.801422,201.621307 215.768982,201.217422 216.769226,201.955627 
	C218.418976,204.301834 214.838409,205.127716 215.234955,207.623505 
	C221.902527,206.191650 228.502274,204.801346 235.089676,203.354767 
	C256.526154,198.647415 278.248993,197.062973 300.112915,198.094162 
	C307.562469,198.445496 314.960052,200.188599 321.109497,205.115784 
	C322.220306,206.005783 323.251251,207.268967 325.491333,207.136658 
	C325.500427,202.107956 322.683868,198.366196 319.597534,195.184128 
	C317.121674,192.631424 316.103577,190.492783 317.956238,187.367783 
	C318.675842,186.153915 318.753052,184.854248 318.470276,183.502441 
	C316.753937,175.297516 320.754913,169.804611 327.379761,165.211090 
M304.596405,234.109375 
	C306.160095,233.549850 307.827240,233.178345 309.263641,232.387604 
	C311.526001,231.142181 315.357025,230.184631 314.830750,227.412384 
	C313.986145,222.963272 315.301910,219.254608 316.477112,215.308792 
	C317.023193,213.475189 316.557495,211.495270 314.465942,211.598465 
	C310.333466,211.802322 305.774658,209.985962 302.189117,213.803452 
	C301.504547,214.532318 299.899231,215.103134 299.018402,214.818710 
	C295.180084,213.579285 292.777527,215.305710 291.031586,218.547150 
	C288.319244,216.837326 285.782684,214.784348 282.986664,216.811813 
	C276.818573,221.284424 269.205750,219.790375 262.515594,222.082138 
	C260.546539,222.756638 258.176453,222.288895 256.157593,221.392410 
	C247.392609,217.500214 238.028275,217.055954 228.678665,216.174683 
	C225.362579,215.862106 223.766846,219.863007 222.692566,219.288116 
	C217.864655,216.704544 214.413330,222.502106 209.833786,220.749649 
	C208.461548,220.224518 206.323593,221.257797 204.952881,223.137955 
	C205.703369,223.614639 206.334839,224.082947 207.022995,224.442795 
	C218.173782,230.274216 230.511566,232.541641 242.443146,235.915955 
	C262.981903,241.724442 283.536774,240.756012 304.596405,234.109375 
z"/>
<path fill="#000000" opacity="1.000000" stroke="none" 
	d="
M713.053284,358.878784 
	C715.752930,361.351227 716.827148,364.350922 717.774841,367.365509 
	C723.454346,385.431335 730.544250,403.077667 734.289307,421.717865 
	C735.457642,427.532684 737.911926,431.440704 744.358398,432.078979 
	C746.896484,432.330322 749.505493,433.315247 750.795044,436.194183 
	C748.789978,438.850281 746.108765,438.247803 743.819031,437.944641 
	C737.226868,437.071716 730.814392,435.312805 724.444275,433.409363 
	C721.896545,432.648102 720.866577,430.611572 719.848633,428.487579 
	C715.391479,419.187592 710.619385,410.023407 706.547424,400.557922 
	C702.001038,389.989685 695.107117,380.629486 691.162598,369.788849 
	C690.482910,367.920807 689.626892,366.039795 689.395569,364.099976 
	C688.669678,358.014374 693.682739,353.474335 698.839783,355.905487 
	C703.368103,358.040283 707.879700,358.892181 713.053284,358.878784 
z"/>
<path fill="#000000" opacity="1.000000" stroke="none" 
	d="
M400.857849,171.220306 
	C402.895294,172.937424 404.775635,174.320618 406.402802,175.955734 
	C409.907532,179.477478 410.249878,183.482941 407.762573,187.739532 
	C405.561523,191.506119 402.422699,194.481995 399.347687,197.493561 
	C397.313019,199.486252 394.938782,199.446320 392.438110,198.357132 
	C388.874390,196.804932 385.915955,194.472488 385.868195,190.388336 
	C385.779022,182.771362 388.538666,176.171844 394.328827,171.036575 
	C396.341583,169.251450 398.489685,169.173691 400.857849,171.220306 
z"/>
<path fill="#000000" opacity="1.000000" stroke="none" 
	d="
M594.900024,431.262573 
	C594.188354,433.650024 591.936157,432.373474 590.624329,433.467743 
	C590.593323,434.677063 592.198120,436.278625 589.924255,437.106689 
	C587.513245,437.984650 584.804199,438.812286 582.884155,436.822357 
	C580.819397,434.682434 578.424988,433.074249 575.972534,431.481140 
	C581.697083,424.447693 589.119080,423.773621 594.900024,431.262573 
z"/>
<path fill="#000000" opacity="1.000000" stroke="none" 
	d="
M639.091614,571.194824 
	C639.029724,571.672363 639.045532,571.853882 638.979675,571.998108 
	C638.850769,572.280457 638.676331,572.541992 638.520752,572.812134 
	C637.651062,572.060120 637.946533,571.005859 637.962708,570.115784 
	C638.192871,557.497314 639.728027,544.990479 641.401672,532.504395 
	C641.625244,530.836609 641.863342,528.822021 645.283203,527.259521 
	C645.225708,542.596069 641.645752,556.680054 639.091614,571.194824 
z"/>
<path fill="#000000" opacity="1.000000" stroke="none" 
	d="
M567.212158,437.698364 
	C564.127991,439.959930 561.240356,440.965485 557.720947,438.460175 
	C560.384460,435.429932 563.701782,435.275879 566.945129,435.321686 
	C568.365112,435.341675 568.196289,436.526398 567.212158,437.698364 
z"/>
</svg>