<svg xmlns="http://www.w3.org/2000/svg" width="1105" height="1280" viewBox="0 0 1105 1280" version="1.1"><path d="M 106 14.500 C 106 14.775, 106.225 15, 106.500 15 C 106.775 15, 107 14.775, 107 14.500 C 107 14.225, 106.775 14, 106.500 14 C 106.225 14, 106 14.225, 106 14.500 M 55.843 17.067 C 49.103 18.869, 43.157 23.983, 40.553 30.218 C 38.274 35.674, 38.164 1241.380, 40.442 1247.837 C 42.580 1253.895, 45.632 1257.476, 51.368 1260.655 C 56.500 1263.500, 56.500 1263.500, 431.250 1263.500 C 763.688 1263.500, 806.002 1263.669, 806.015 1265 C 806.028 1266.258, 806.174 1266.274, 806.916 1265.101 C 807.666 1263.917, 825.708 1263.671, 924.151 1263.503 C 1005.059 1263.364, 1041.304 1262.973, 1043.139 1262.219 C 1047.178 1260.559, 1052.899 1255.118, 1055.059 1250.885 C 1058.457 1244.224, 1058.018 36.729, 1054.616 29.421 C 1052.142 24.109, 1048.880 20.947, 1043 18.159 C 1039.419 16.462, 62.149 15.380, 55.843 17.067 M 64.449 28 C 55.900 28.606, 52.489 30.578, 51.056 35.741 C 47.654 48.006, 49.967 1245.167, 53.399 1248.599 C 55.270 1250.470, 57.407 1252.018, 58.150 1252.040 C 87.510 1252.903, 1036.242 1252.331, 1038.500 1251.449 C 1042.071 1250.053, 1044.485 1247.426, 1045.346 1244 C 1045.843 1242.018, 1045.993 1102.763, 1045.836 787.500 C 1045.836 786.400, 1045.873 616.841, 1045.918 410.702 C 1046.009 4.383, 1046.384 32.149, 1040.763 29.141 C 1038.358 27.853, 82.270 26.736, 64.449 28 M 97 29.500 C 97 29.775, 97.225 30, 97.500 30 C 97.775 30, 98 29.775, 98 29.500 C 98 29.225, 97.775 29, 97.500 29 C 97.225 29, 97 29.225, 97 29.500 M 83 35.500 C 83 35.775, 83.225 36, 83.500 36 C 83.775 36, 84 35.775, 84 35.500 C 84 35.225, 83.775 35, 83.500 35 C 83.225 35, 83 35.225, 83 35.500 M 1006 47.500 C 1006 47.775, 1006.225 48, 1006.500 48 C 1006.775 48, 1007 47.775, 1007 47.500 C 1007 47.225, 1006.775 47, 1006.500 47 C 1006.225 47, 1006 47.225, 1006 47.500 M 171 108.500 C 171 108.775, 171.225 109, 171.500 109 C 171.775 109, 172 108.775, 172 108.500 C 172 108.225, 171.775 108, 171.500 108 C 171.225 108, 171 108.225, 171 108.500 M 289 109.500 C 289 109.775, 289.225 110, 289.500 110 C 289.775 110, 290 109.775, 290 109.500 C 290 109.225, 289.775 109, 289.500 109 C 289.225 109, 289 109.225, 289 109.500 M 199 113.500 C 199 113.775, 199.225 114, 199.500 114 C 199.775 114, 200 113.775, 200 113.500 C 200 113.225, 199.775 113, 199.500 113 C 199.225 113, 199 113.225, 199 113.500 M 444 127.500 C 444 127.775, 444.225 128, 444.500 128 C 444.775 128, 445 127.775, 445 127.500 C 445 127.225, 444.775 127, 444.500 127 C 444.225 127, 444 127.225, 444 127.500 M 269 145.500 C 269 145.775, 269.225 146, 269.500 146 C 269.775 146, 270 145.775, 270 145.500 C 270 145.225, 269.775 145, 269.500 145 C 269.225 145, 269 145.225, 269 145.500 M 1033 201.500 C 1033 201.775, 1033.225 202, 1033.500 202 C 1033.775 202, 1034 201.775, 1034 201.500 C 1034 201.225, 1033.775 201, 1033.500 201 C 1033.225 201, 1033 201.225, 1033 201.500 M 84 207.500 C 84 207.775, 84.225 208, 84.500 208 C 84.775 208, 85 207.775, 85 207.500 C 85 207.225, 84.775 207, 84.500 207 C 84.225 207, 84 207.225, 84 207.500 M 245 214.500 C 245 214.775, 245.225 215, 245.500 215 C 245.775 215, 246 214.775, 246 214.500 C 246 214.225, 245.775 214, 245.500 214 C 245.225 214, 245 214.225, 245 214.500 M 209 224.500 C 209 224.775, 209.225 225, 209.500 225 C 209.775 225, 210 224.775, 210 224.500 C 210 224.225, 209.775 224, 209.500 224 C 209.225 224, 209 224.225, 209 224.500 M 199 240.500 C 199 240.775, 199.225 241, 199.500 241 C 199.775 241, 200 240.775, 200 240.500 C 200 240.225, 199.775 240, 199.500 240 C 199.225 240, 199 240.225, 199 240.500 M 142 358.500 C 142 358.775, 142.225 359, 142.500 359 C 142.775 359, 143 358.775, 143 358.500 C 143 358.225, 142.775 358, 142.500 358 C 142.225 358, 142 358.225, 142 358.500 M 1019 623.500 C 1019 623.775, 1019.225 624, 1019.500 624 C 1019.775 624, 1020 623.775, 1020 623.500 C 1020 623.225, 1019.775 623, 1019.500 623 C 1019.225 623, 1019 623.225, 1019 623.500 M 92 624.500 C 92 624.775, 92.225 625, 92.500 625 C 92.775 625, 93 624.775, 93 624.500 C 93 624.225, 92.775 624, 92.500 624 C 92.225 624, 92 624.225, 92 624.500 M 74 683.500 C 74 683.775, 74.225 684, 74.500 684 C 74.775 684, 75 683.775, 75 683.500 C 75 683.225, 74.775 683, 74.500 683 C 74.225 683, 74 683.225, 74 683.500 M 66 685.500 C 66 685.775, 66.225 686, 66.500 686 C 66.775 686, 67 685.775, 67 685.500 C 67 685.225, 66.775 685, 66.500 685 C 66.225 685, 66 685.225, 66 685.500 M 73 725.500 C 73 725.775, 73.225 726, 73.500 726 C 73.775 726, 74 725.775, 74 725.500 C 74 725.225, 73.775 725, 73.500 725 C 73.225 725, 73 725.225, 73 725.500 M 1030 842.500 C 1030 842.775, 1030.225 843, 1030.500 843 C 1030.775 843, 1031 842.775, 1031 842.500 C 1031 842.225, 1030.775 842, 1030.500 842 C 1030.225 842, 1030 842.225, 1030 842.500 M 1018 887.500 C 1018 887.775, 1018.225 888, 1018.500 888 C 1018.775 888, 1019 887.775, 1019 887.500 C 1019 887.225, 1018.775 887, 1018.500 887 C 1018.225 887, 1018 887.225, 1018 887.500 M 1023 901.500 C 1023 901.775, 1023.225 902, 1023.500 902 C 1023.775 902, 1024 901.775, 1024 901.500 C 1024 901.225, 1023.775 901, 1023.500 901 C 1023.225 901, 1023 901.225, 1023 901.500 M 946 933.500 C 946 933.775, 946.225 934, 946.500 934 C 946.775 934, 947 933.775, 947 933.500 C 947 933.225, 946.775 933, 946.500 933 C 946.225 933, 946 933.225, 946 933.500 M 930 1017.500 C 930 1017.775, 930.225 1018, 930.500 1018 C 930.775 1018, 931 1017.775, 931 1017.500 C 931 1017.225, 930.775 1017, 930.500 1017 C 930.225 1017, 930 1017.225, 930 1017.500 M 864 1052.500 C 864 1052.775, 864.225 1053, 864.500 1053 C 864.775 1053, 865 1052.775, 865 1052.500 C 865 1052.225, 864.775 1052, 864.500 1052 C 864.225 1052, 864 1052.225, 864 1052.500 M 958 1066.500 C 958 1066.775, 958.225 1067, 958.500 1067 C 958.775 1067, 959 1066.775, 959 1066.500 C 959 1066.225, 958.775 1066, 958.500 1066 C 958.225 1066, 958 1066.225, 958 1066.500 M 1022 1074.500 C 1022 1074.775, 1022.225 1075, 1022.500 1075 C 1022.775 1075, 1023 1074.775, 1023 1074.500 C 1023 1074.225, 1022.775 1074, 1022.500 1074 C 1022.225 1074, 1022 1074.225, 1022 1074.500 M 801 1115.500 C 801 1115.775, 801.225 1116, 801.500 1116 C 801.775 1116, 802 1115.775, 802 1115.500 C 802 1115.225, 801.775 1115, 801.500 1115 C 801.225 1115, 801 1115.225, 801 1115.500 M 98 1116.500 C 98 1116.775, 98.225 1117, 98.500 1117 C 98.775 1117, 99 1116.775, 99 1116.500 C 99 1116.225, 98.775 1116, 98.500 1116 C 98.225 1116, 98 1116.225, 98 1116.500 M 828 1134.500 C 828 1134.775, 828.225 1135, 828.500 1135 C 828.775 1135, 829 1134.775, 829 1134.500 C 829 1134.225, 828.775 1134, 828.500 1134 C 828.225 1134, 828 1134.225, 828 1134.500 M 757 1150.500 C 757 1150.775, 757.225 1151, 757.500 1151 C 757.775 1151, 758 1150.775, 758 1150.500 C 758 1150.225, 757.775 1150, 757.500 1150 C 757.225 1150, 757 1150.225, 757 1150.500 M 829 1165.500 C 829 1165.775, 829.225 1166, 829.500 1166 C 829.775 1166, 830 1165.775, 830 1165.500 C 830 1165.225, 829.775 1165, 829.500 1165 C 829.225 1165, 829 1165.225, 829 1165.500 M 934 1165.500 C 934 1165.775, 934.225 1166, 934.500 1166 C 934.775 1166, 935 1165.775, 935 1165.500 C 935 1165.225, 934.775 1165, 934.500 1165 C 934.225 1165, 934 1165.225, 934 1165.500 M 610 1207.500 C 610 1207.775, 610.225 1208, 610.500 1208 C 610.775 1208, 611 1207.775, 611 1207.500 C 611 1207.225, 610.775 1207, 610.500 1207 C 610.225 1207, 610 1207.225, 610 1207.500 M 128 1211.500 C 128 1211.775, 128.225 1212, 128.500 1212 C 128.775 1212, 129 1211.775, 129 1211.500 C 129 1211.225, 128.775 1211, 128.500 1211 C 128.225 1211, 128 1211.225, 128 1211.500 M 121 1220.500 C 121 1220.775, 121.225 1221, 121.500 1221 C 121.775 1221, 122 1220.775, 122 1220.500 C 122 1220.225, 121.775 1220, 121.500 1220 C 121.225 1220, 121 1220.225, 121 1220.500 M 122 1222.500 C 122 1222.775, 122.225 1223, 122.500 1223 C 122.775 1223, 123 1222.775, 123 1222.500 C 123 1222.225, 122.775 1222, 122.500 1222 C 122.225 1222, 122 1222.225, 122 1222.500" stroke="none" fill="#141c1c" fill-rule="evenodd"/><path d="M 1029.221 3.750 C 1020.569 14.760, 1020.934 17, 1031.378 17 C 1052.833 17, 1056.976 23.531, 1056.990 57.379 L 1057 80.257 1063.616 69.379 C 1083.585 36.546, 1068.886 3.048, 1038.141 11.321 C 1032.782 12.764, 1032.782 12.764, 1033.188 6.382 C 1033.660 -1.031, 1033.212 -1.328, 1029.221 3.750 M 133.270 4.025 C 130.943 4.500, 127.001 5.791, 124.510 6.892 C 120.198 8.800, 119.838 8.814, 117.002 7.198 C 112.881 4.849, 109.620 6.574, 106.315 12.852 C 106.213 13.046, 105.100 12.483, 103.842 11.602 C 98.996 8.208, 85.056 10.613, 80.958 15.551 C 78.500 18.512, 118.408 17.501, 121.382 14.527 C 128.496 7.413, 145.075 7.451, 159.217 14.612 C 168.723 19.425, 173.156 17.335, 164.529 12.107 C 152.934 5.080, 141.978 2.247, 133.270 4.025 M 976 3.871 C 968.670 5.486, 963.700 9.319, 962.452 14.321 C 961.669 17.458, 1004.065 18.342, 1007.149 15.253 C 1012.998 9.395, 989.652 0.864, 976 3.871 M 302.845 9.042 C 297.550 14.608, 297.677 17, 303.266 17 C 307.532 17, 307.532 17, 307.670 11 C 307.833 3.883, 307.776 3.859, 302.845 9.042 M 217.500 8.834 C 203.702 15.436, 206.152 16.976, 230.424 16.958 C 249.398 16.945, 253.011 16.718, 252.080 15.596 C 250.916 14.194, 243.138 11.656, 241.462 12.132 C 240.933 12.282, 238.530 11.375, 236.122 10.117 C 230.005 6.920, 222.571 6.408, 217.500 8.834 M 342 13.259 C 336.500 16.500, 336.500 16.500, 344.250 16.792 C 364.160 17.542, 367.948 16.831, 363.100 13.250 C 356.878 8.654, 349.810 8.657, 342 13.259 M 424.688 11.646 C 424.332 12.001, 415.825 12.563, 405.782 12.896 C 375.901 13.885, 377.908 17, 408.427 17 C 428.534 17, 430 16.878, 430 15.200 C 430 12.157, 426.511 9.823, 424.688 11.646 M 465.274 14.064 C 450.919 15.931, 455.216 16.976, 476.996 16.915 C 498.612 16.855, 501.663 16.124, 488.929 14.058 C 481.658 12.879, 474.371 12.880, 465.274 14.064 M 106 14.500 C 106 14.775, 106.225 15, 106.500 15 C 106.775 15, 107 14.775, 107 14.500 C 107 14.225, 106.775 14, 106.500 14 C 106.225 14, 106 14.225, 106 14.500 M 66.782 30.228 C 60.506 34.581, 60.575 34.662, 71.250 35.413 C 85.541 36.418, 103.086 31.188, 97.247 27.663 C 93.313 25.288, 71.223 27.148, 66.782 30.228 M 96.618 31.254 C 94.353 33.594, 91.929 36.406, 91.230 37.504 C 89.981 39.467, 89.969 39.465, 90.500 37.398 C 91.022 35.367, 90.846 35.328, 85.270 36.227 C 82.097 36.739, 76.451 36.869, 72.725 36.516 C 65.950 35.874, 65.950 35.874, 61.450 39.835 C 58.976 42.013, 55.387 44.538, 53.475 45.445 C 44.485 49.711, 50.029 52.500, 67.500 52.500 C 82.889 52.500, 85.317 51.572, 87.555 44.833 C 88.462 42.104, 89.388 40.054, 89.613 40.279 C 89.837 40.504, 89.293 42.671, 88.403 45.094 C 86.390 50.574, 85.206 69, 86.866 69 C 87.490 69, 88 68.413, 88 67.696 C 88 65.742, 93.639 60.763, 101.500 55.775 C 114.278 47.667, 122.556 33.990, 118.004 28.505 C 114.889 24.751, 101.212 26.509, 96.618 31.254 M 177 27.497 C 177 27.771, 179.027 30.748, 181.504 34.113 C 197.654 56.051, 200.864 84.520, 191.446 122.274 C 186.999 140.100, 180.356 155.218, 161.024 191.500 C 153.265 206.062, 151.828 210.600, 153.924 213.911 C 154.470 214.774, 154.391 216.002, 153.720 217.076 C 152.925 218.350, 152.928 220.157, 153.730 223.664 C 155.268 230.386, 154.577 230.231, 152.280 223.340 C 150.802 218.905, 149.786 217.397, 147.926 216.877 C 145.751 216.269, 145.836 216.189, 148.750 216.100 C 152.386 215.988, 152.942 214.001, 150.943 208.265 C 150.038 205.670, 150.613 202.880, 154.919 188.965 C 163.152 162.366, 170.979 124.850, 170.995 111.911 C 170.999 109.166, 171.530 108.076, 173.250 107.280 C 176.775 105.649, 184.911 98.072, 186.559 94.885 C 188.331 91.459, 187.864 91.301, 184.125 94.066 C 176.639 99.600, 172.561 96.574, 171.907 85 C 169.109 35.427, 120.107 27.070, 108.092 74.116 C 105.777 83.181, 105.772 83.176, 111.316 77.631 C 113.796 75.151, 118.002 72.018, 120.662 70.669 C 125.911 68.008, 127.941 66.083, 130.237 61.590 C 131.724 58.680, 131.724 58.680, 132.947 63.778 C 135.444 74.186, 139.531 78.619, 143.454 75.175 C 152.833 66.940, 163.808 73.571, 166.539 89.122 C 167.157 92.644, 167.076 92.763, 163.617 93.412 C 161.660 93.779, 158.718 95.208, 157.079 96.587 C 154.100 99.094, 154.100 99.094, 152.625 96.242 C 148.039 87.373, 140.031 89.564, 130.257 102.363 C 125.496 108.596, 122.855 111.188, 122.067 110.400 C 121.826 110.160, 123.239 108.284, 125.205 106.232 C 135.366 95.625, 131.164 88.736, 116 91.144 C 112.987 91.622, 109.594 91.341, 105.730 90.292 C 98.684 88.379, 96.893 89.467, 94.995 96.812 C 93.783 101.500, 93.783 101.500, 92.526 96.670 C 90.619 89.345, 89.329 88.469, 82.842 90.098 C 79.904 90.836, 74.220 91.294, 70.211 91.115 C 55.088 90.440, 52.132 96.063, 62.415 105.946 C 64.387 107.842, 66 109.754, 66 110.196 C 66 112.436, 63.547 110.207, 57.529 102.500 C 53.878 97.825, 50.691 94, 50.446 94 C 50.201 94, 50 99.786, 50 106.858 C 50 121.061, 49.085 120.500, 75.594 122.554 C 83.344 123.154, 83.670 123.278, 83.252 125.462 C 82.550 129.133, 85.549 133.707, 89.623 135.180 C 93.264 136.497, 93.264 136.497, 92.632 145.402 C 92.284 150.300, 91.974 157.276, 91.941 160.904 C 91.883 167.500, 91.883 167.500, 85.094 171.849 C 71.370 180.642, 60.546 192.150, 53.488 205.454 C 47.533 216.680, 48.120 255.504, 54.250 255.847 C 63.259 256.351, 70.187 259.613, 74.408 265.337 C 76.639 268.362, 77.167 311.802, 75.434 349.863 C 74.781 364.226, 74.781 364.226, 72.819 359.863 C 64.772 341.968, 54.562 303.886, 51.141 279 C 50.372 273.410, 50.230 274.810, 50.130 289 C 49.993 308.323, 51.621 316.071, 61.481 343 C 77.438 386.585, 77.714 389.745, 69.133 430.749 C 52.259 511.388, 51.424 595.313, 66.602 685.227 C 70.100 705.955, 70.100 705.955, 66.079 718.748 C 47.901 776.583, 47.433 822.502, 64.413 882 C 65.404 885.471, 65.520 892.215, 64.921 911.500 C 64.494 925.250, 63.655 954.275, 63.056 976 C 58.685 1134.619, 57.969 1154.990, 56.389 1165.705 C 55.562 1171.318, 53.908 1178.968, 52.714 1182.705 C 50.743 1188.879, 50.517 1192.027, 50.242 1217.138 C 49.850 1252.953, 49.889 1253.015, 72.500 1252.668 C 84.370 1252.487, 85.367 1250.896, 82.749 1236.317 C 81.998 1232.134, 81.998 1232.134, 86.970 1235.480 C 89.705 1237.320, 93.643 1239.349, 95.721 1239.989 C 97.799 1240.629, 100.175 1241.377, 101 1241.652 C 101.925 1241.960, 100.569 1242.985, 97.461 1244.326 C 91.118 1247.063, 85 1250.691, 85 1251.716 C 85.001 1252.147, 98.051 1252.648, 114 1252.829 C 137.618 1253.097, 142.999 1252.911, 142.996 1251.829 C 142.990 1249.763, 139.319 1244.241, 137.196 1243.105 C 135.597 1242.249, 135.363 1241.275, 135.762 1237.123 C 136.752 1226.827, 132.018 1215.127, 122.149 1203.475 C 107.983 1186.749, 103.763 1181.111, 100.135 1174.060 C 93.521 1161.207, 93.445 1160.618, 96.911 1149.326 C 110.554 1104.884, 110.226 1031.863, 96.100 969 C 93.291 956.500, 93.291 956.500, 93.776 911.158 C 94.435 849.576, 92.123 805.693, 85.812 760 C 82.739 737.751, 84.225 684.049, 88.289 670.500 C 96.720 642.388, 101.992 615.681, 104.971 586 C 105.551 580.225, 106.265 573.250, 106.558 570.500 C 106.851 567.750, 107.500 549.525, 107.999 530 C 110.026 450.790, 116.848 424.198, 151.257 361.388 C 173.174 321.380, 179.631 302.908, 181.628 274.494 C 182.131 267.334, 182.640 265, 183.697 265 C 189.011 265, 194.482 258.251, 193.813 252.520 C 193.437 249.304, 193.437 249.304, 205.058 249.783 C 213.124 250.115, 217.874 249.861, 220.589 248.954 C 222.740 248.235, 225.625 247.528, 227 247.382 C 240.304 245.974, 246.789 243.046, 260 232.481 C 273.993 221.290, 282.035 218.709, 289.836 222.906 C 293.400 224.823, 293.693 223.336, 290.427 219.896 C 284.454 213.605, 273.134 209.873, 262.500 210.688 C 257.500 211.072, 257.500 211.072, 262 206.913 C 289.922 181.109, 362.627 150.924, 421 140.901 C 492.561 128.614, 534.096 99.611, 524.685 68.500 C 522.624 61.688, 528.393 48.667, 539.750 34.496 C 542.638 30.893, 545 27.777, 545 27.572 C 545 27.367, 539.232 27.138, 532.181 27.063 C 516.596 26.898, 515.952 27.257, 509.893 39.483 C 506.062 47.216, 505.572 47.788, 503.466 46.987 C 499.843 45.610, 489 44.626, 489 45.675 C 489 46.188, 490.462 48.026, 492.250 49.760 C 509.933 66.913, 485.002 102.402, 442.240 120.949 C 434.510 124.302, 412.496 132.070, 411.043 131.958 C 410.744 131.935, 413.984 130.151, 418.242 127.994 C 458.183 107.759, 483.517 69.072, 467.808 52.302 C 463.722 47.940, 460.672 48.314, 455.316 53.833 C 450.950 58.332, 449.519 59.094, 440 61.998 C 424.723 66.658, 419.819 71.079, 418.490 81.392 C 416.848 94.141, 413.066 104.161, 408.165 108.747 C 405.500 111.241, 405.500 111.241, 409 110.497 C 422.641 107.598, 433.920 94.507, 437.369 77.572 C 439.024 69.445, 442.311 73.198, 442.427 83.347 C 442.652 103.007, 422.331 119.991, 374.617 140.022 C 362.581 145.075, 344.182 152.959, 333.730 157.541 C 323.278 162.124, 315.126 165.532, 315.613 165.116 C 316.101 164.699, 322.575 159.812, 330 154.255 C 368.571 125.390, 395.582 96.440, 417.569 60.399 C 418.565 58.766, 420.594 58.029, 426.675 57.088 C 441.348 54.819, 446.555 51.387, 446.364 44.113 C 446.265 40.319, 446.265 40.319, 450.886 40.763 C 457.248 41.374, 473.610 32.148, 473.944 27.761 C 473.975 27.355, 458.842 27.130, 440.315 27.261 C 406.630 27.500, 406.630 27.500, 406.839 33.500 C 407.047 39.500, 407.047 39.500, 401.299 43.500 C 388.710 52.262, 370.216 72.256, 351.812 97 C 313.897 147.976, 283.105 181.135, 251.204 205.338 C 250.491 205.879, 252.022 202.762, 254.607 198.411 C 260.204 188.989, 266.996 174.634, 269.468 167 C 270.574 163.585, 272.339 160.620, 274.125 159.178 C 276.255 157.457, 277 155.989, 277 153.514 C 277 150.249, 277.065 150.198, 279.876 151.259 C 289.044 154.720, 296.649 143.492, 298.086 124.378 C 298.546 118.260, 299.562 111.398, 300.344 109.128 C 301.775 104.975, 301.291 104.249, 298.184 105.889 C 296.688 106.679, 296.473 105.975, 296.262 99.580 C 296.023 92.382, 296.023 92.382, 308.262 87.019 C 356.723 65.781, 369.274 55.539, 371.654 35.283 C 372.682 26.540, 374.734 26.998, 334.628 27.015 C 294.554 27.033, 296.417 26.668, 298.605 34.060 C 302.159 46.067, 314.679 54, 330.073 54 C 339.410 54, 339.456 54.391, 331.159 63.261 C 323.243 71.723, 296.273 87.816, 294.073 85.390 C 292.352 83.492, 289.999 74.403, 289.978 69.572 C 289.956 64.500, 289.956 64.500, 287.999 67 C 282.991 73.400, 278.669 83.290, 279.727 85.932 C 282.236 92.204, 281.957 92.050, 277.138 84.500 C 268.980 71.719, 266.953 69.862, 269.017 77.060 C 271.409 85.400, 268.916 101.834, 265.862 97.863 C 264.044 95.500, 264.044 95.500, 264.022 98.653 C 263.978 104.944, 243.512 117.657, 239.334 113.988 C 236.362 111.379, 230.601 109.020, 227.165 109.006 C 226.431 109.003, 227.687 106.890, 229.957 104.311 C 253.712 77.324, 249.380 27.139, 225.062 47.602 C 218.002 53.542, 215.429 64.705, 221.377 63.589 C 242.504 59.626, 230.073 94.766, 196.646 133.500 C 193.194 137.500, 193.194 137.500, 195.557 130.241 C 198.900 119.974, 201.068 103.866, 201.165 88.581 C 201.248 75.471, 201.248 75.471, 204.874 75.816 C 210.914 76.392, 212.444 73.762, 215.991 56.706 C 217.677 48.596, 220.169 38.878, 221.529 35.109 C 222.888 31.341, 224 28.029, 224 27.749 C 224 26.917, 203.603 26.911, 202.342 27.742 C 200.441 28.994, 198.005 40.265, 197.932 48.144 C 197.875 54.334, 197.693 55.104, 196.781 53 C 188.623 34.184, 177 19.198, 177 27.497 M 246.500 35 C 246.500 44.152, 246.496 44.147, 250.879 39.625 C 257.882 32.400, 258.016 27, 251.191 27 C 246.500 27, 246.500 27, 246.500 35 M 963.546 27.926 C 963.249 28.406, 964.468 30.087, 966.253 31.662 C 969.381 34.420, 969.504 34.819, 969.615 42.513 C 969.805 55.769, 973.788 63.505, 989.428 81 C 1007.567 101.290, 1012.451 113.468, 1008.114 127.595 C 994.562 171.734, 994.820 248.893, 1008.714 307.500 C 1011.322 318.500, 1011.322 318.500, 1011.081 368.500 C 1010.763 434.412, 1012.469 466.230, 1019.147 519 C 1022.893 548.607, 1021.480 593.327, 1016.239 611 C 1008.604 636.747, 1002.559 667.731, 1000.044 694 C 999.439 700.325, 998.707 707.525, 998.418 710 C 998.129 712.475, 997.487 730.700, 996.991 750.500 C 994.920 833.256, 988.810 855.606, 947.237 932.500 C 931.474 961.654, 923.116 989.153, 923.020 1012.171 C 923.001 1016.526, 922.801 1016.885, 920.042 1017.491 C 915.020 1018.594, 910.754 1024.440, 911.169 1029.651 C 911.454 1033.237, 911.244 1033.918, 910.008 1033.420 C 905.996 1031.801, 888.453 1031.770, 884.628 1033.375 C 882.498 1034.269, 879.058 1035, 876.983 1035 C 867.391 1035, 856.970 1040.068, 842.732 1051.658 C 831.041 1061.174, 824.136 1063.173, 815.468 1059.551 C 810.830 1057.613, 811.098 1058.914, 816.331 1063.738 C 822.894 1069.787, 830.651 1072.349, 840.250 1071.637 C 849.719 1070.935, 849.749 1070.528, 839.750 1078.319 C 803.920 1106.236, 740.209 1132.663, 687.500 1141.472 C 629.407 1151.180, 586.422 1173.539, 579.398 1197.703 C 577.719 1203.480, 577.953 1206.712, 580.692 1215.587 C 582.496 1221.431, 577.665 1232.729, 567.770 1245.803 C 565.147 1249.270, 563 1252.261, 563 1252.451 C 563 1259.391, 591.507 1251.515, 595.479 1243.477 C 598.422 1237.521, 599.588 1236.022, 600.867 1236.549 C 602.903 1237.388, 616 1238.448, 616 1237.774 C 616 1237.502, 614.409 1235.593, 612.465 1233.532 C 593.076 1212.973, 626.251 1174.058, 678.534 1156.030 C 693.472 1150.880, 694.470 1150.976, 684.060 1156.564 C 654.639 1172.359, 632.712 1198.416, 632.738 1217.554 C 632.756 1231.124, 642.090 1238.815, 648.439 1230.491 C 651.608 1226.336, 656.138 1223.869, 665 1221.471 C 680.481 1217.282, 684.800 1212.639, 687.399 1197.389 C 689.249 1186.534, 691.978 1179.716, 696.312 1175.118 C 699.500 1171.736, 699.500 1171.736, 696.500 1172.414 C 682.646 1175.546, 671.266 1188.410, 667.890 1204.753 C 666.166 1213.103, 663.985 1212.010, 662.383 1201.994 C 659.103 1181.482, 680.045 1164.602, 741.530 1138.197 C 760.763 1129.937, 779.639 1121.762, 783.476 1120.030 C 787.313 1118.298, 790.238 1117.080, 789.976 1117.324 C 789.714 1117.568, 784.092 1121.790, 777.483 1126.706 C 740.415 1154.274, 709.964 1186.069, 691.484 1216.500 C 688.812 1220.900, 686.548 1224.624, 686.454 1224.775 C 686.360 1224.927, 682.504 1225.662, 677.885 1226.410 C 663.208 1228.786, 657.175 1233.226, 658.499 1240.678 C 659.064 1243.856, 659.064 1243.856, 655.547 1242.885 C 649.734 1241.280, 631.866 1249.945, 635.877 1252.424 C 641.305 1255.779, 697.529 1252.099, 697.802 1248.372 C 698.084 1244.506, 698.621 1243.842, 706.252 1237.927 C 717.315 1229.352, 732.104 1214.282, 740.623 1202.904 C 744.496 1197.732, 752.879 1186.525, 759.253 1178 C 790.224 1136.574, 820.165 1103.974, 846.316 1083.207 C 850.614 1079.793, 854.299 1077, 854.503 1077 C 854.708 1077, 853.157 1079.830, 851.055 1083.289 C 845.281 1092.793, 839.561 1104.584, 836.401 1113.498 C 834.552 1118.712, 832.597 1122.310, 830.782 1123.837 C 828.685 1125.601, 828 1127.067, 828 1129.789 C 828 1132.598, 827.733 1133.133, 826.800 1132.200 C 819.386 1124.786, 808.376 1139.157, 806.922 1158.144 C 806.118 1168.639, 805.420 1172.509, 803.463 1177.338 C 800.890 1183.688, 820.478 1168.594, 824.932 1160.796 C 827.377 1156.515, 827.750 1156.207, 827.750 1158.472 C 827.750 1159.908, 827.503 1160.836, 827.200 1160.534 C 826.898 1160.231, 825.892 1161.141, 824.964 1162.555 C 822.012 1167.055, 815.370 1173.486, 811.567 1175.526 C 807.887 1177.500, 807.887 1177.500, 808.193 1184.272 C 808.500 1191.045, 808.500 1191.045, 794.500 1197.343 C 747.199 1218.621, 734.786 1228.775, 733.798 1247 C 733.501 1252.488, 804.552 1256.938, 806.615 1251.561 C 809.915 1242.961, 791.201 1229.608, 775.753 1229.539 C 765.612 1229.494, 765.949 1229.897, 770.755 1223.572 C 775.907 1216.792, 786.431 1209.031, 799.471 1202.397 C 811.813 1196.117, 813.260 1197.019, 814.877 1212 C 815.579 1218.500, 815.579 1218.500, 818.539 1213.854 C 823.641 1205.847, 824.090 1205.356, 821.604 1210.500 C 818.601 1216.713, 823.857 1228.715, 834.216 1239.302 C 841.307 1246.548, 841.990 1246.281, 837.767 1237.914 C 834.766 1231.970, 834.518 1230.718, 834.375 1220.817 C 834.190 1208.040, 827.888 1195.476, 825.476 1203.075 C 825.114 1204.217, 824.617 1204.950, 824.371 1204.705 C 824.126 1204.459, 824.470 1203.063, 825.135 1201.603 C 826.133 1199.412, 826.052 1198.333, 824.673 1195.440 C 821.730 1189.269, 822.871 1190.325, 827.461 1198.021 C 835.096 1210.822, 838.071 1213.453, 835.855 1205.444 C 834.102 1199.111, 836.732 1178.860, 838.542 1184.750 C 839.524 1187.946, 841 1187.537, 841 1184.070 C 841 1178.761, 861.622 1165.449, 865 1168.578 C 867.861 1171.228, 873.977 1174, 876.964 1174 C 878.683 1174, 878.234 1174.940, 874.017 1180.174 C 851.342 1208.314, 855.511 1252.297, 879.373 1236.674 C 886.905 1231.742, 889.243 1218.993, 882.475 1219.756 C 862.942 1221.957, 875.785 1187.110, 908.369 1149.500 C 911.834 1145.500, 911.834 1145.500, 909.900 1151.264 C 905.681 1163.842, 902.565 1190.231, 903.764 1203.245 C 904.201 1207.990, 904.201 1207.990, 901.222 1207.394 C 894.488 1206.048, 892.229 1209.583, 889.015 1226.500 C 887.761 1233.100, 885.742 1241.556, 884.529 1245.291 C 881.912 1253.349, 881.219 1252.727, 893 1252.896 C 905.841 1253.079, 906.860 1251.778, 907.024 1235 C 907.098 1227.500, 907.098 1227.500, 909.546 1233.865 C 912.032 1240.327, 918.585 1251.939, 919.822 1252.074 C 920.195 1252.115, 921.513 1252.337, 922.750 1252.568 C 925.636 1253.106, 925.587 1252.717, 922.135 1247.680 C 906.522 1224.905, 904.082 1192.355, 915.149 1154.500 C 919.606 1139.258, 927.611 1121.722, 943.908 1091.500 C 948.357 1083.250, 951.992 1075.375, 951.985 1074 C 951.965 1069.893, 950.897 1067.134, 949.147 1066.670 C 948.100 1066.391, 948.369 1066.190, 949.886 1066.116 C 954.906 1065.872, 949.835 1050.116, 942.002 1041.618 C 938.003 1037.279, 937.893 1036.991, 939.413 1034.821 C 943.793 1028.567, 938.793 1018, 931.453 1018 C 928.402 1018, 930.363 1015.423, 941.522 1004.767 C 987.191 961.155, 1000.884 907.409, 1004.009 759.500 C 1005.196 703.342, 1007.087 682.441, 1014.098 648 C 1019.733 620.319, 1019.932 620.021, 1019.425 640 C 1019.181 649.625, 1018.526 678.200, 1017.970 703.500 C 1012.746 941.331, 1015.803 912.249, 988.163 987 C 966.933 1044.414, 969.086 1039.904, 964 1037.599 C 956.096 1034.016, 935.427 1034.809, 940.687 1038.493 C 943.761 1040.646, 948.845 1049.057, 952.026 1057.254 C 954.128 1062.671, 955.363 1064.581, 956.919 1064.820 C 959.952 1065.285, 959.467 1066.586, 956.277 1066.539 C 952.970 1066.492, 952.269 1068.755, 953.984 1073.950 C 955.044 1077.163, 954.835 1078.629, 952.115 1087.034 C 943.856 1112.565, 936.755 1143.807, 934.850 1163 C 933.708 1174.500, 933.708 1174.500, 928.304 1178.328 C 920.252 1184.032, 912.896 1194.724, 920.640 1189.470 C 924.180 1187.067, 928.201 1186.372, 931.418 1187.607 C 932.682 1188.092, 933 1189.858, 933 1196.397 C 933 1246.197, 982.898 1257.342, 996.452 1210.569 C 999.503 1200.041, 999.319 1199.535, 994.411 1204.966 C 992.352 1207.246, 988.605 1210.286, 986.084 1211.722 C 980.366 1214.978, 977.237 1217.688, 974.967 1221.350 C 973.200 1224.200, 973.200 1224.200, 971.539 1218.487 C 968.704 1208.733, 965.149 1204.315, 962.581 1207.351 C 954.027 1217.465, 941.260 1210.576, 938.557 1194.388 C 937.871 1190.276, 937.871 1190.276, 941.774 1189.652 C 943.921 1189.309, 946.875 1187.918, 948.339 1186.562 C 949.803 1185.205, 951 1184.476, 951 1184.942 C 951 1187.645, 956.981 1191.998, 960.651 1191.967 C 965.016 1191.929, 966.851 1190.613, 972.454 1183.500 C 977.946 1176.528, 982.225 1172, 983.324 1172 C 983.836 1172, 982.436 1173.974, 980.212 1176.386 C 969.423 1188.090, 971.659 1192.706, 987.908 1192.269 C 992.634 1192.142, 997.986 1192.523, 999.803 1193.114 C 1005.579 1194.996, 1007.732 1193.711, 1009.658 1187.237 C 1011.364 1181.500, 1011.364 1181.500, 1012.263 1186 C 1013.660 1192.996, 1015.849 1194.664, 1021.724 1193.208 C 1024.351 1192.557, 1030.325 1192.121, 1035 1192.238 C 1047.542 1192.552, 1050.858 1185.560, 1042.315 1176.811 C 1040.288 1174.735, 1038.916 1172.751, 1039.265 1172.402 C 1039.614 1172.053, 1041.272 1173.270, 1042.950 1175.106 C 1046 1178.446, 1046 1178.446, 1046 1170.338 C 1046 1161.243, 1047.566 1162.127, 1028.410 1160.409 C 1021.730 1159.810, 1021.346 1159.643, 1021.752 1157.515 C 1022.450 1153.864, 1019.441 1149.289, 1015.375 1147.819 C 1011.731 1146.501, 1011.731 1146.501, 1012.360 1137 C 1012.706 1131.775, 1012.996 1124.800, 1013.004 1121.500 C 1013.017 1115.500, 1013.017 1115.500, 1018.759 1111.801 C 1036.063 1100.655, 1046 1089.293, 1046 1080.654 C 1046 1074.527, 1046 1074.527, 1042.341 1080.013 C 1035.112 1090.854, 1017.612 1108, 1013.777 1108 C 1012.847 1108, 1012.770 1097.083, 1013.635 1087.931 C 1014.252 1081.400, 1014.281 1081.347, 1018.628 1079.042 C 1023.326 1076.549, 1024.025 1075.397, 1021.250 1074.720 C 1020.288 1074.485, 1020.893 1074.294, 1022.596 1074.294 C 1026.538 1074.296, 1031.264 1071.516, 1033.364 1067.960 C 1035.825 1063.796, 1035.340 1062.689, 1032.104 1065.081 C 1028.477 1067.763, 1021.068 1068.685, 1016.929 1066.971 C 1013.825 1065.685, 1013.825 1065.685, 1014.410 1051.092 C 1014.731 1043.067, 1015.452 1014.450, 1016.011 987.500 C 1017.388 921.143, 1017.297 922.688, 1020.472 911.840 C 1023.996 899.799, 1024.962 897.406, 1024.444 902 C 1023.242 912.653, 1021.906 1017.161, 1022.882 1024.147 C 1025.145 1040.335, 1036.776 1058, 1045.171 1058 C 1047.862 1058, 1045.980 1026.212, 1043.250 1025.540 C 1027.704 1021.714, 1024.955 1001.255, 1029.882 926.065 L 1030.500 916.629 1034.891 928.790 C 1037.307 935.478, 1040.774 945.799, 1042.596 951.725 C 1044.418 957.651, 1045.961 962.050, 1046.025 961.500 C 1047.146 951.861, 1045.671 944.112, 1039.565 927.566 C 1036.102 918.180, 1032.645 908.700, 1031.884 906.500 C 1029.180 898.684, 1030.294 876.918, 1034.367 858 C 1038.118 840.578, 1042.019 818.149, 1044.194 801.500 C 1045.170 794.029, 1045.500 772.279, 1045.500 715.500 C 1045.500 631.081, 1045.894 637.535, 1037.924 591.310 C 1034.961 574.120, 1034.961 574.120, 1040.150 557.310 C 1045.339 540.500, 1045.339 540.500, 1045.569 515 C 1045.745 495.450, 1045.602 491.771, 1044.955 499.235 C 1043.711 513.595, 1037.289 547.033, 1035.413 548.918 C 1035.184 549.148, 1035.224 545.998, 1035.502 541.918 C 1035.779 537.838, 1036.453 512.900, 1037 486.500 C 1038.300 423.716, 1038.902 413.056, 1040.639 422 C 1042.880 433.538, 1045 449.919, 1045 455.701 C 1045 458.799, 1045.253 461.080, 1045.563 460.770 C 1048.021 458.313, 1045.809 415.638, 1042.613 403.838 C 1039.271 391.500, 1039.271 391.500, 1040.059 367 C 1040.493 353.525, 1041.359 323.375, 1041.985 300 C 1042.611 276.625, 1043.554 245.350, 1044.082 230.500 C 1045.926 178.567, 1046.196 70.811, 1044.469 76 C 1040.116 89.075, 1039.669 100.167, 1037.060 260 C 1035.196 374.203, 1035.039 377.778, 1032.282 369.064 C 1029.928 361.627, 1029.928 361.627, 1030.970 316.064 C 1033.265 215.671, 1034.045 180.413, 1035.009 133.560 C 1036.015 84.619, 1036.015 84.619, 1038.585 78.195 C 1042.691 67.931, 1044.211 58.802, 1043.818 46.750 C 1043.626 40.837, 1043.813 36, 1044.234 36 C 1044.655 36, 1045 36.525, 1045 37.167 C 1045 37.808, 1045.286 38.048, 1045.635 37.699 C 1049.658 33.675, 1040.280 27.579, 1030 27.536 C 1020.538 27.496, 1020.376 27.763, 1022.252 40.274 C 1022.968 45.048, 1022.968 45.048, 1020.734 42.936 C 1017.416 39.797, 1009.750 36.144, 1004.835 35.358 C 1002.453 34.977, 1001.179 34.464, 1002.002 34.219 C 1005.840 33.076, 1015 28.641, 1015 27.926 C 1015 26.833, 964.222 26.832, 963.546 27.926 M 996.627 38.697 C 1003.608 44.955, 1007.353 48, 1008.070 48 C 1013.136 48, 1019.307 67.668, 1021.249 90 C 1021.534 93.277, 1021.694 93.065, 1023.771 86.661 C 1028.246 72.867, 1013.901 45.868, 997.955 38.072 C 993.500 35.894, 993.500 35.894, 996.627 38.697 M 264.215 39.750 C 270.205 51.534, 270.443 52.385, 270.608 62.619 C 270.852 77.832, 276.332 86.226, 280.564 77.871 C 282.060 74.917, 283.886 71.581, 284.621 70.459 C 286.571 67.478, 279.745 54.194, 271.819 45.544 C 266.752 40.014, 262.830 37.026, 264.215 39.750 M 80.500 52.734 C 77.999 53.672, 73.089 54.227, 67.397 54.216 C 58.294 54.198, 58.294 54.198, 54.147 60.505 C 48.297 69.403, 48.334 73.271, 54.250 71.428 C 56.587 70.699, 62.074 69.586, 66.442 68.954 C 79.782 67.024, 85 64.123, 85 58.637 C 85 56.177, 85.273 53.452, 85.607 52.582 C 86.320 50.724, 85.818 50.739, 80.500 52.734 M 50 58.773 C 50 65.407, 50 65.407, 53.430 59.967 C 55.317 56.975, 56.728 54.394, 56.566 54.233 C 52.851 50.518, 50 52.489, 50 58.773 M 982.500 55 C 982.840 55.550, 983.343 56, 983.618 56 C 983.893 56, 983.840 55.550, 983.500 55 C 983.160 54.450, 982.657 54, 982.382 54 C 982.107 54, 982.160 54.450, 982.500 55 M 34.015 57.264 C 31.299 59.002, 28.538 59.607, 21.515 60.003 C 11.895 60.546, 14.446 63.702, 27 66.790 C 39.235 69.800, 39 69.893, 39 62.045 C 39 54.202, 38.920 54.125, 34.015 57.264 M 392.477 69.544 C 371.504 81.496, 361.366 92.299, 316.564 150.428 C 301.044 170.565, 300.958 170.529, 323 153.138 C 358.109 125.437, 383.885 97.614, 397.517 72.702 C 402.187 64.167, 402.057 64.085, 392.477 69.544 M 498.405 92.125 C 491.708 99.595, 473.845 112.160, 458.500 120.194 C 446.425 126.516, 445.883 127.221, 455.879 123.605 C 477.237 115.879, 493.571 104.465, 499.401 93.192 C 501.327 89.467, 501.052 89.172, 498.405 92.125 M 0 92.810 C 0 97.246, 15.658 109.107, 27.131 113.362 C 39.964 118.121, 39 118.852, 39 104.364 C 39 91.610, 37.136 88.694, 34.431 97.217 C 33.819 99.145, 33.782 99.144, 31.655 97.152 C 27.430 93.194, 17.405 91.917, 15.446 95.087 C 14.397 96.784, 6.818 96.051, 3.368 93.918 C 1.516 92.774, 0 92.275, 0 92.810 M 284.044 98.050 C 284.068 98.297, 284.751 100.750, 285.561 103.500 C 287.034 108.500, 287.034 108.500, 286.466 104 C 286.153 101.525, 285.471 99.073, 284.949 98.550 C 284.427 98.027, 284.020 97.802, 284.044 98.050 M 1025.127 104.737 C 1021.841 111.530, 1021.779 111.897, 1022.442 120.595 C 1022.816 125.493, 1022.193 156.275, 1021.059 189 C 1017.685 286.297, 1017.791 321.038, 1021.500 333.914 L 1024.500 344.328 1025.184 333.914 C 1025.560 328.186, 1026.347 299.875, 1026.933 271 C 1027.518 242.125, 1028.517 193.068, 1029.153 161.984 C 1030.483 97.009, 1030.277 94.091, 1025.127 104.737 M 271.695 108.487 C 272.610 110.406, 273.536 111.797, 273.753 111.580 C 274.210 111.123, 271.175 105, 270.490 105 C 270.239 105, 270.781 106.569, 271.695 108.487 M 292 108.302 C 289.467 109.483, 282.807 116.287, 279.925 120.638 C 279.058 121.946, 278.046 122.712, 277.675 122.341 C 277.304 121.970, 277.020 122.979, 277.044 124.583 C 277.088 127.500, 277.088 127.500, 279.099 123.690 C 281.226 119.658, 288.809 111.510, 293 108.751 C 295.919 106.829, 295.530 106.655, 292 108.302 M 255 114.115 C 244.750 120.575, 244.991 120.223, 246.740 126.189 C 249.396 135.250, 248.141 146.164, 243.297 156.122 C 236.709 169.669, 236.073 170.051, 236.016 160.500 C 235.945 148.557, 232.192 135.564, 228.452 134.317 C 224.509 133.003, 173.874 183.613, 164.605 198.132 C 162.285 201.766, 177.307 203.992, 191.697 202.146 C 210.992 199.672, 214.678 202.261, 209.500 214.654 C 207.452 219.557, 207.688 220.256, 209.950 215.981 C 215.458 205.565, 222.140 203.469, 236.704 207.586 C 242.120 209.117, 266.923 162.912, 264.784 155.277 C 263.688 151.364, 263.775 150.868, 265.975 148.527 C 267.876 146.504, 268.025 146, 266.725 146 C 259.870 146, 255.563 126.434, 259.904 115.011 C 260.951 112.255, 261.739 110.004, 261.654 110.010 C 261.569 110.015, 258.575 111.862, 255 114.115 M 164 112.024 C 158.912 115.393, 128.463 122, 118.026 122 C 108.934 122, 107 122.811, 107 126.625 C 107 130.385, 104.425 133.604, 100.663 134.549 C 98.596 135.067, 95.648 161.698, 97.431 163.735 C 99.433 166.022, 124.701 143.552, 132.539 132.515 L 137.500 125.530 137.792 133.879 C 138.975 167.674, 106.775 201.783, 98.679 175.310 C 97.208 170.500, 97.208 170.500, 97.097 179 C 97.036 183.675, 96.699 190.537, 96.348 194.250 C 95.711 201, 95.711 201, 100.105 201.006 C 109.704 201.018, 119 205.761, 119 210.647 C 119 212.046, 119.887 214.436, 120.970 215.958 C 122.054 217.480, 124.137 221.954, 125.600 225.900 C 127.063 229.846, 128.442 232.891, 128.666 232.667 C 129.279 232.054, 123.403 216.413, 121.584 213.817 C 119.122 210.302, 119.624 210.049, 125.011 212.096 C 132.319 214.873, 133.553 214.382, 126.500 211.504 C 119.306 208.568, 115 204.224, 115 199.901 C 115 198.214, 115.338 197.007, 115.750 197.219 C 141.897 210.679, 148.091 201.688, 162.046 130.017 C 163.707 121.483, 165.235 113.713, 165.440 112.750 C 165.874 110.713, 165.934 110.743, 164 112.024 M 274.157 113.500 C 274.154 114.050, 274.759 116.075, 275.500 118 C 276.241 119.925, 276.862 120.825, 276.879 120 C 276.896 119.175, 276.292 117.150, 275.536 115.500 C 274.781 113.850, 274.160 112.950, 274.157 113.500 M 444 127 C 443.175 127.533, 442.950 127.969, 443.500 127.969 C 444.050 127.969, 445.175 127.533, 446 127 C 446.825 126.467, 447.050 126.031, 446.500 126.031 C 445.950 126.031, 444.825 126.467, 444 127 M 276 129 C 276 129.733, 276.300 130.033, 276.667 129.667 C 277.033 129.300, 277.033 128.700, 276.667 128.333 C 276.300 127.967, 276 128.267, 276 129 M 1013.105 134.750 C 1003.165 168.644, 1001.853 230.958, 1010.027 280.948 C 1011.146 287.794, 1012.273 293.607, 1012.531 293.865 C 1012.789 294.122, 1013 286.046, 1013 275.917 C 1012.999 265.788, 1013.436 241.300, 1013.970 221.500 C 1015.109 179.277, 1015.905 128, 1015.422 128 C 1015.237 128, 1014.194 131.037, 1013.105 134.750 M 208.500 130.564 C 201.594 134.134, 191.359 146.777, 181.026 164.500 C 177.320 170.857, 176.472 172.896, 178.139 171.443 C 179.438 170.312, 185.450 164.873, 191.500 159.356 C 197.550 153.839, 207.225 145.360, 213 140.512 C 218.775 135.665, 223.631 131.374, 223.791 130.977 C 224.700 128.719, 212.695 128.394, 208.500 130.564 M 275 133 C 275 133.733, 275.300 134.033, 275.667 133.667 C 276.033 133.300, 276.033 132.700, 275.667 132.333 C 275.300 131.967, 275 132.267, 275 133 M 274.158 139 C 274.158 140.375, 274.385 140.938, 274.662 140.250 C 274.940 139.563, 274.940 138.438, 274.662 137.750 C 274.385 137.063, 274.158 137.625, 274.158 139 M 274 143 C 274 143.733, 274.300 144.033, 274.667 143.667 C 275.033 143.300, 275.033 142.700, 274.667 142.333 C 274.300 141.967, 274 142.267, 274 143 M 269 145.500 C 269 145.775, 269.225 146, 269.500 146 C 269.775 146, 270 145.775, 270 145.500 C 270 145.225, 269.775 145, 269.500 145 C 269.225 145, 269 145.225, 269 145.500 M 274.500 147 C 274.840 147.550, 275.343 148, 275.618 148 C 275.893 148, 275.840 147.550, 275.500 147 C 275.160 146.450, 274.657 146, 274.382 146 C 274.107 146, 274.160 146.450, 274.500 147 M 85.500 178.607 C 62.067 196.128, 49.278 219.272, 60.051 224.662 C 72.965 231.122, 79.823 241.439, 82.118 257.853 C 83.141 265.176, 81.683 371.914, 80.457 379.427 C 79.607 384.634, 80.899 381.601, 84.074 370.932 C 87.706 358.729, 87.603 360.354, 88.989 294 C 89.547 267.325, 90.265 239.080, 90.586 231.234 C 91.303 213.681, 87.144 209.828, 74.649 216.472 C 71.994 217.883, 70 218.460, 70 217.816 C 70 215.652, 74.903 210.283, 78.083 208.966 C 79.845 208.236, 82.425 206.584, 83.816 205.295 C 85.206 204.006, 87.353 202.699, 88.585 202.389 C 90.996 201.784, 92.624 189.966, 91.833 178.810 C 91.500 174.121, 91.500 174.121, 85.500 178.607 M 17.873 198.250 C 9.143 217.563, 19.918 250.573, 36.250 254.548 C 42.466 256.060, 40.132 217.179, 33.750 212.913 C 27.333 208.622, 22 201.122, 22 196.387 C 22 191.564, 20.612 192.190, 17.873 198.250 M 85.762 207.707 C 87.006 207.946, 88.806 207.937, 89.762 207.687 C 90.718 207.437, 89.700 207.241, 87.500 207.252 C 85.300 207.263, 84.518 207.468, 85.762 207.707 M 101.750 207.662 C 102.438 207.940, 103.563 207.940, 104.250 207.662 C 104.938 207.385, 104.375 207.158, 103 207.158 C 101.625 207.158, 101.063 207.385, 101.750 207.662 M 133.813 214.683 C 134.534 214.972, 135.397 214.936, 135.729 214.604 C 136.061 214.272, 135.471 214.036, 134.417 214.079 C 133.252 214.127, 133.015 214.364, 133.813 214.683 M 243.872 215.750 C 242.629 217.336, 242.664 217.371, 244.250 216.128 C 245.916 214.821, 246.445 214, 245.622 214 C 245.415 214, 244.627 214.787, 243.872 215.750 M 137.333 215.667 C 137.700 216.033, 138.300 216.033, 138.667 215.667 C 139.033 215.300, 138.733 215, 138 215 C 137.267 215, 136.967 215.300, 137.333 215.667 M 158.769 217.239 C 160.271 217.645, 167.575 217.931, 175 217.875 C 190.079 217.759, 200.130 219.185, 204.963 222.124 C 208.275 224.138, 208.306 224.312, 206.477 230.657 C 206.185 231.671, 206.885 230.481, 208.033 228.013 C 212.320 218.794, 217.131 217.561, 227 223.152 C 232.776 226.425, 241.957 227.443, 244.326 225.074 C 245.091 224.309, 244.768 224, 243.200 224 C 240.760 224, 240.480 222.945, 242.055 219.684 C 243.244 217.224, 241.585 219.063, 239.370 222.663 C 238.292 224.414, 237.798 224.347, 228.870 221.244 C 217.976 217.459, 216.684 217.357, 211.711 219.892 C 209.670 220.933, 208 221.479, 208 221.106 C 208 220.734, 207.213 220.393, 206.250 220.350 C 205.287 220.307, 201.800 219.476, 198.500 218.503 C 193.812 217.122, 188.512 216.709, 174.269 216.617 C 164.242 216.553, 157.267 216.833, 158.769 217.239 M 51 220.500 C 51 220.775, 51.225 221, 51.500 221 C 51.775 221, 52 220.775, 52 220.500 C 52 220.225, 51.775 220, 51.500 220 C 51.225 220, 51 220.225, 51 220.500 M 95.588 235.228 C 94.910 249.755, 92.967 326.983, 93.055 335.928 C 93.109 341.500, 93.109 341.500, 95.645 334.500 C 108.190 299.866, 112.090 289.200, 120.433 266.721 C 125.695 252.542, 130 240.788, 130 240.600 C 130 240.412, 127.790 239.965, 125.089 239.606 C 118.203 238.693, 107.432 232.976, 101.354 227.008 C 96.207 221.955, 96.207 221.955, 95.588 235.228 M 155 230.500 C 155 230.775, 155.225 231, 155.500 231 C 155.775 231, 156 230.775, 156 230.500 C 156 230.225, 155.775 230, 155.500 230 C 155.225 230, 155 230.225, 155 230.500 M 237.398 233.250 C 233.018 238.302, 231.717 240, 232.225 240 C 232.519 240, 234.418 237.975, 236.446 235.500 C 240.203 230.916, 240.947 229.157, 237.398 233.250 M 157.542 234.810 C 158.406 236.630, 160.669 239.842, 162.571 241.947 C 165.416 245.096, 165.746 245.883, 164.433 246.387 C 160.961 247.720, 147.417 246.906, 142.011 245.040 C 138.992 243.998, 136.432 243.235, 136.322 243.345 C 135.030 244.637, 104.382 328.941, 97.731 349.500 C 91.555 368.589, 91.629 367.011, 87.031 576.500 C 86.475 601.800, 85.836 630.150, 85.609 639.500 C 85.198 656.500, 85.198 656.500, 87.085 649 C 96.624 611.103, 99.666 583.189, 100.982 521.500 C 104.100 375.264, 116.951 323.662, 161.179 279.790 C 176.939 264.156, 176.057 265.504, 171.516 264.005 C 164.912 261.826, 161.532 252.758, 165.367 247.513 C 166.585 245.848, 166.285 245.083, 162.617 240.482 C 160.352 237.643, 157.931 234.460, 157.236 233.410 C 156.540 232.359, 156.678 232.989, 157.542 234.810 M 199 240.279 C 194.664 245.031, 193.559 246.664, 195.681 245.182 C 198.504 243.212, 203.358 237.747, 205.391 234.250 C 206.689 232.018, 205.607 233.039, 199 240.279 M 129 234.500 C 129 234.775, 129.225 235, 129.500 235 C 129.775 235, 130 234.775, 130 234.500 C 130 234.225, 129.775 234, 129.500 234 C 129.225 234, 129 234.225, 129 234.500 M 130 236.500 C 130 236.775, 130.225 237, 130.500 237 C 130.775 237, 131 236.775, 131 236.500 C 131 236.225, 130.775 236, 130.500 236 C 130.225 236, 130 236.225, 130 236.500 M 168.883 282.721 C 136.481 316.397, 120.280 355.921, 112.026 421.426 C 109.923 438.118, 109.924 441.705, 112.029 432.804 C 117.197 410.954, 130.460 379.411, 144.853 354.739 C 160.552 327.827, 167.839 310.421, 172.045 289.778 C 174.609 277.196, 174.479 276.906, 168.883 282.721 M 1017 375.942 C 1017 428.464, 1020.735 500.854, 1022.266 478 C 1026.526 414.381, 1024.221 348.887, 1017.483 342.150 C 1017.217 341.884, 1017 357.091, 1017 375.942 M 1029.102 395 C 1029.046 403.525, 1028.514 436.940, 1027.919 469.257 C 1026.855 527.082, 1027.809 549.718, 1031.482 553.787 C 1031.624 553.945, 1032.068 533.920, 1032.467 509.287 C 1032.866 484.654, 1033.525 449.200, 1033.930 430.500 C 1034.668 396.500, 1034.668 396.500, 1031.935 388 C 1029.203 379.500, 1029.203 379.500, 1029.102 395 M 86 387.506 C 86 387.785, 84.666 393.297, 83.036 399.756 C 79.729 412.856, 79.741 412.554, 76.981 550.500 C 76.387 580.200, 75.503 622.050, 75.017 643.500 C 74.005 688.186, 74.368 693.304, 77.741 681.912 C 79.785 675.010, 80.009 671.233, 80.994 627 C 81.575 600.875, 82.477 561.950, 82.998 540.500 C 83.520 519.050, 84.411 480.350, 84.979 454.500 C 85.547 428.650, 86.186 402.887, 86.398 397.250 C 86.611 391.613, 86.608 387, 86.392 387 C 86.177 387, 86 387.228, 86 387.506 M 70.788 458.500 C 59.744 527.732, 59.259 575.271, 68.881 645.500 L 70.662 658.500 71.320 646 C 72.279 627.800, 74.239 483.889, 73.840 461 L 73.500 441.500 70.788 458.500 M 1026.272 574 C 1026.272 576.475, 1026.467 577.487, 1026.706 576.250 C 1026.944 575.013, 1026.944 572.987, 1026.706 571.750 C 1026.467 570.513, 1026.272 571.525, 1026.272 574 M 1027.259 598.088 C 1025.215 604.990, 1024.991 608.769, 1024.005 653 C 1023.423 679.125, 1022.520 718.275, 1021.999 740 C 1021.477 761.725, 1020.588 800.200, 1020.023 825.500 C 1019.458 850.800, 1018.818 876.900, 1018.601 883.500 C 1018.383 890.100, 1018.369 895.050, 1018.568 894.500 C 1025.130 876.388, 1025.142 876.170, 1028.023 729.500 C 1028.617 699.250, 1029.496 657.175, 1029.977 636 C 1030.981 591.773, 1030.620 586.738, 1027.259 598.088 M 1034.042 622 C 1033.461 623.619, 1031.110 770.747, 1031.166 802 C 1031.240 843.216, 1031.331 843.417, 1035.891 812.500 C 1042.011 771.006, 1044.372 723.793, 1041.991 690.500 C 1040.402 668.281, 1034.790 619.918, 1034.042 622 M 78.272 705 C 78.272 707.475, 78.467 708.487, 78.706 707.250 C 78.944 706.013, 78.944 703.987, 78.706 702.750 C 78.467 701.513, 78.272 702.525, 78.272 705 M 72.535 769.713 C 72.137 794.346, 71.484 829.559, 71.084 847.964 C 70.355 881.513, 71.438 893.771, 75.487 897.820 C 75.769 898.102, 76 891.272, 76 882.642 C 76 874.012, 76.486 841.061, 77.079 809.418 C 78.137 753.042, 77.131 729.270, 73.515 725.213 C 73.374 725.055, 72.933 745.080, 72.535 769.713 M 66.143 743.750 C 57.829 778.642, 56.998 817.104, 63.772 853.500 L 65.448 862.500 66.121 854.500 C 66.491 850.100, 67.296 822.875, 67.908 794 C 68.521 765.125, 69.246 739.138, 69.520 736.250 C 70.299 728.032, 69.428 729.966, 66.143 743.750 M 82.735 800 C 79.577 837.989, 80.219 913.925, 83.791 925 C 87.500 936.500, 87.500 936.500, 87.817 906.500 C 88.305 860.215, 84.448 779.388, 82.735 800 M 1030 842.500 C 1030 842.775, 1030.225 843, 1030.500 843 C 1030.775 843, 1031 842.775, 1031 842.500 C 1031 842.225, 1030.775 842, 1030.500 842 C 1030.225 842, 1030 842.225, 1030 842.500 M 993.523 846.178 C 989.309 867.146, 974.264 903.157, 958.792 929.307 C 943.843 954.575, 927.215 999.548, 931.308 1003.641 C 933.528 1005.861, 957.528 974.153, 966.002 957.804 C 980.480 929.872, 987.928 901.725, 993.976 852.084 C 995.015 843.564, 994.747 840.085, 993.523 846.178 M 70.067 910 C 70.015 914.675, 69.553 936.950, 69.042 959.500 C 68.530 982.050, 67.616 1035.825, 67.010 1079 C 65.892 1158.694, 64.670 1184.358, 61.369 1197.500 C 60.541 1200.800, 59 1206.875, 57.947 1211 C 54.912 1222.879, 55.629 1233.851, 59.775 1238.970 C 61.428 1241.012, 61.500 1240.524, 61.500 1227.300 C 61.500 1212.884, 62.356 1208.036, 66.639 1198.181 C 68.900 1192.979, 68.973 1191.770, 69.989 1142.681 C 70.561 1115.082, 71.468 1073.375, 72.006 1050 C 75.289 907.201, 75.248 917.322, 72.573 909 L 70.163 901.500 70.067 910 M 79.626 948 C 79.265 955.975, 78.534 983.650, 78.001 1009.500 C 74.136 1196.991, 73.999 1183.874, 79.700 1172.587 C 83.171 1165.716, 83.188 1165.614, 82.541 1156.087 C 82.183 1150.814, 82.794 1120.400, 83.898 1088.500 C 87.715 978.199, 87.690 959.495, 83.702 945.500 L 80.283 933.500 79.626 948 M 1008.125 950.352 C 1006.269 955.933, 998.056 978.694, 989.875 1000.930 C 981.694 1023.167, 975 1041.472, 975 1041.609 C 975 1041.746, 977.587 1042.389, 980.750 1043.038 C 988.868 1044.703, 996.099 1048.493, 1002.900 1054.648 L 1008.762 1059.953 1009.384 1047.726 C 1010.223 1031.261, 1012.305 940.967, 1011.856 940.542 C 1011.660 940.356, 1009.981 944.771, 1008.125 950.352 M 92 1001.583 C 92.001 1011.438, 91.569 1035.700, 91.041 1055.500 C 89.410 1116.666, 89.052 1149.622, 90.038 1147.879 C 91.333 1145.589, 95.775 1127.521, 96.579 1121.269 C 96.950 1118.392, 97.604 1116.255, 98.033 1116.520 C 98.462 1116.786, 98.591 1116.152, 98.319 1115.113 C 98.048 1114.074, 98.336 1109.019, 98.961 1103.881 C 100.617 1090.264, 100.373 1044.575, 98.543 1025.500 C 97.043 1009.864, 93.402 985.069, 92.469 984.135 C 92.211 983.878, 92 991.729, 92 1001.583 M 1057 1026.183 C 1057 1062.700, 1057 1062.700, 1063.475 1065.452 C 1074.277 1070.043, 1083 1079.428, 1083 1086.460 C 1083 1090.346, 1084.542 1089.501, 1087.035 1084.250 C 1097.314 1062.605, 1082.991 1027.139, 1063.923 1027.022 C 1060.541 1027.001, 1060.370 1026.841, 1060.776 1024.071 C 1061.215 1021.084, 1058.257 990.924, 1057.446 990.113 C 1057.201 989.867, 1057 1006.099, 1057 1026.183 M 907.839 1038.750 C 903.359 1042.782, 898 1049.642, 898 1051.346 C 898 1051.921, 899.273 1050.385, 900.828 1047.932 C 902.384 1045.479, 905.822 1041.566, 908.469 1039.236 C 911.116 1036.906, 912.995 1035, 912.644 1035 C 912.293 1035, 910.131 1036.688, 907.839 1038.750 M 868.924 1046.750 C 866.500 1049.500, 866.500 1049.500, 869.250 1047.076 C 871.820 1044.810, 872.459 1044, 871.674 1044 C 871.495 1044, 870.258 1045.237, 868.924 1046.750 M 974 1045.500 C 974 1045.775, 974.225 1046, 974.500 1046 C 974.775 1046, 975 1045.775, 975 1045.500 C 975 1045.225, 974.775 1045, 974.500 1045 C 974.225 1045, 974 1045.225, 974 1045.500 M 975.031 1047.500 C 975.031 1048.050, 975.467 1049.175, 976 1050 C 976.533 1050.825, 976.969 1051.050, 976.969 1050.500 C 976.969 1049.950, 976.533 1048.825, 976 1048 C 975.467 1047.175, 975.031 1046.950, 975.031 1047.500 M 864.405 1052.155 C 863.962 1052.870, 864.130 1053.038, 864.845 1052.595 C 865.480 1052.203, 866 1051.684, 866 1051.441 C 866 1050.607, 865.117 1051.002, 864.405 1052.155 M 977.024 1053.083 C 977.098 1057.496, 984.427 1071.472, 986.119 1070.426 C 986.752 1070.035, 986.352 1068.939, 985.085 1067.590 C 983.948 1066.381, 981.845 1062.491, 980.409 1058.946 C 977.570 1051.932, 976.988 1050.923, 977.024 1053.083 M 897 1054 C 897 1054.733, 897.300 1055.033, 897.667 1054.667 C 898.033 1054.300, 898.033 1053.700, 897.667 1053.333 C 897.300 1052.967, 897 1053.267, 897 1054 M 862.118 1056.906 C 861.033 1057.593, 861.198 1057.928, 862.882 1058.463 C 864.138 1058.861, 864.755 1059.633, 864.368 1060.322 C 863.926 1061.110, 864.153 1061.086, 865.053 1060.250 C 867.072 1058.376, 870.408 1058.725, 877 1061.500 C 883.660 1064.303, 890.642 1064.738, 893.559 1062.532 C 896.322 1060.442, 897.227 1060.661, 896.526 1063.250 C 895.917 1065.500, 895.917 1065.500, 897.208 1063.319 C 898.175 1061.687, 898.914 1061.371, 900.147 1062.061 C 904.537 1064.521, 916.750 1065.995, 931.815 1065.885 C 942.827 1065.804, 946.308 1065.526, 943.500 1064.950 C 941.300 1064.498, 935.900 1064.383, 931.500 1064.692 C 916.708 1065.734, 898.806 1062.114, 897.438 1057.805 C 896.852 1055.959, 896.654 1056.040, 894.970 1058.810 C 891.758 1064.090, 886.659 1064.118, 877.265 1058.905 C 871.958 1055.960, 865.051 1055.049, 862.118 1056.906 M 863 1062.500 C 863 1062.775, 863.225 1063, 863.500 1063 C 863.775 1063, 864 1062.775, 864 1062.500 C 864 1062.225, 863.775 1062, 863.500 1062 C 863.225 1062, 863 1062.225, 863 1062.500 M 861.405 1065.155 C 860.962 1065.870, 861.130 1066.038, 861.845 1065.595 C 862.480 1065.203, 863 1064.684, 863 1064.441 C 863 1063.607, 862.117 1064.002, 861.405 1065.155 M 895 1066.500 C 895 1066.775, 895.225 1067, 895.500 1067 C 895.775 1067, 896 1066.775, 896 1066.500 C 896 1066.225, 895.775 1066, 895.500 1066 C 895.225 1066, 895 1066.225, 895 1066.500 M 859.405 1068.155 C 858.962 1068.870, 859.130 1069.038, 859.845 1068.595 C 860.480 1068.203, 861 1067.684, 861 1067.441 C 861 1066.607, 860.117 1067.002, 859.405 1068.155 M 966.750 1067.662 C 967.438 1067.940, 968.563 1067.940, 969.250 1067.662 C 969.938 1067.385, 969.375 1067.158, 968 1067.158 C 966.625 1067.158, 966.063 1067.385, 966.750 1067.662 M 892.561 1070.548 C 888.570 1076.639, 879.473 1078.684, 870.532 1075.499 C 868.350 1074.722, 866.325 1074.421, 866.032 1074.831 C 850.179 1097.026, 838.312 1121.149, 840.208 1127.327 C 841.218 1130.618, 841.098 1131.377, 839.144 1134.019 C 837.440 1136.323, 837.276 1137, 838.419 1137 C 845.144 1137, 849.384 1156.703, 845.091 1168.002 C 843.182 1173.025, 843.182 1173.025, 846.841 1170.960 C 858.392 1164.440, 859.940 1162.542, 858.290 1156.912 C 855.602 1147.744, 856.836 1136.884, 861.703 1126.878 C 868.291 1113.331, 868.927 1112.949, 868.984 1122.500 C 869.055 1134.449, 872.809 1147.436, 876.552 1148.684 C 880.519 1150.006, 927.652 1102.799, 939.836 1085.301 C 943.089 1080.629, 926.025 1078.730, 904.433 1081.361 C 895.155 1082.492, 893.496 1081.172, 894.308 1073.308 C 894.935 1067.232, 894.836 1067.076, 892.561 1070.548 M 977 1070.508 C 984.789 1073.388, 990 1078.398, 990 1083.006 C 990 1086.041, 990 1086.041, 985.750 1083.865 C 981.586 1081.734, 963.481 1079.504, 961.811 1080.917 C 959.585 1082.800, 945.668 1137.308, 941.226 1161.538 L 939.386 1171.577 947.224 1168.803 C 955.724 1165.795, 971.644 1162.462, 982 1161.522 C 998.550 1160.020, 998 1160.195, 998 1156.406 C 998 1152.614, 1000.561 1149.399, 1004.337 1148.451 C 1006.437 1147.925, 1009.341 1121.248, 1007.521 1119.217 C 1005.401 1116.852, 978.132 1141.482, 972 1151.300 C 967.413 1158.645, 967 1158.461, 967 1149.065 C 967 1113.472, 998.104 1081.065, 1006.414 1108 C 1007.802 1112.500, 1007.802 1112.500, 1007.901 1103.397 C 1007.956 1098.390, 1008.282 1091.595, 1008.627 1088.297 C 1009.253 1082.301, 1009.253 1082.301, 1003.141 1081.747 C 996.001 1081.099, 988.268 1077.682, 986.837 1074.542 C 986.140 1073.011, 983.782 1071.679, 979.096 1070.170 C 970.139 1067.285, 968.849 1067.494, 977 1070.508 M 1003.762 1075.707 C 1005.006 1075.946, 1006.806 1075.937, 1007.762 1075.687 C 1008.718 1075.437, 1007.700 1075.241, 1005.500 1075.252 C 1003.300 1075.263, 1002.518 1075.468, 1003.762 1075.707 M 1014.750 1075.662 C 1015.438 1075.940, 1016.563 1075.940, 1017.250 1075.662 C 1017.938 1075.385, 1017.375 1075.158, 1016 1075.158 C 1014.625 1075.158, 1014.063 1075.385, 1014.750 1075.662 M 918.647 1118.553 C 909.729 1127.121, 894.988 1140.167, 884.495 1148.778 C 879.627 1152.773, 880.679 1153.962, 889.100 1153.985 C 897.752 1154.008, 905.270 1147.550, 916.438 1130.500 C 921.597 1122.625, 929.493 1108.959, 928.836 1109.043 C 928.651 1109.067, 924.066 1113.346, 918.647 1118.553 M 789.871 1123.628 C 750.004 1153.876, 713.355 1193.524, 705.036 1215.405 C 703.690 1218.947, 704.441 1218.745, 713.991 1213.005 C 734.467 1200.699, 742.302 1192.275, 786.311 1135.250 C 794.906 1124.112, 801.782 1115, 801.590 1115 C 801.399 1115, 796.125 1118.882, 789.871 1123.628 M 828 1134.378 C 828 1134.585, 828.788 1135.373, 829.750 1136.128 C 831.336 1137.371, 831.371 1137.336, 830.128 1135.750 C 828.821 1134.084, 828 1133.555, 828 1134.378 M 830 1140 C 830 1140.733, 830.300 1141.033, 830.667 1140.667 C 831.033 1140.300, 831.033 1139.700, 830.667 1139.333 C 830.300 1138.967, 830 1139.267, 830 1140 M 830.158 1144 C 830.158 1145.375, 830.385 1145.938, 830.662 1145.250 C 830.940 1144.563, 830.940 1143.438, 830.662 1142.750 C 830.385 1142.063, 830.158 1142.625, 830.158 1144 M 829 1150 C 829 1150.733, 829.300 1151.033, 829.667 1150.667 C 830.033 1150.300, 830.033 1149.700, 829.667 1149.333 C 829.300 1148.967, 829 1149.267, 829 1150 M 693 1151.500 C 693 1151.775, 693.225 1152, 693.500 1152 C 693.775 1152, 694 1151.775, 694 1151.500 C 694 1151.225, 693.775 1151, 693.500 1151 C 693.225 1151, 693 1151.225, 693 1151.500 M 828 1154 C 828 1154.733, 828.300 1155.033, 828.667 1154.667 C 829.033 1154.300, 829.033 1153.700, 828.667 1153.333 C 828.300 1152.967, 828 1153.267, 828 1154 M 661.333 1155.667 C 661.700 1156.033, 662.300 1156.033, 662.667 1155.667 C 663.033 1155.300, 662.733 1155, 662 1155 C 661.267 1155, 660.967 1155.300, 661.333 1155.667 M 649.500 1159.372 C 628.508 1167.003, 611.700 1178.731, 605.608 1190 C 603.715 1193.500, 603.715 1193.500, 607.608 1189.909 C 619.462 1178.971, 635.700 1167.955, 650.372 1160.900 C 662.181 1155.220, 661.965 1154.840, 649.500 1159.372 M 828.121 1163 C 828.104 1163.825, 828.708 1165.850, 829.464 1167.500 C 831.232 1171.362, 831.258 1169.566, 829.500 1165 C 828.759 1163.075, 828.138 1162.175, 828.121 1163 M 1057 1178 C 1057 1193.664, 1066.342 1199.101, 1070.538 1185.880 C 1071.178 1183.865, 1071.266 1183.881, 1073.986 1186.486 C 1077.710 1190.054, 1083.755 1190.865, 1089 1188.500 C 1093.817 1186.328, 1099.289 1186.984, 1102.643 1190.135 C 1108.112 1195.272, 1104.828 1188.668, 1099.031 1182.871 C 1091.213 1175.053, 1066.995 1164, 1057.682 1164 C 1057.307 1164, 1057 1170.300, 1057 1178 M 831 1171.383 C 831 1172.456, 833.975 1178, 834.551 1178 C 834.826 1178, 834.308 1176.537, 833.399 1174.750 C 831.542 1171.100, 831 1170.339, 831 1171.383 M 818.091 1176.500 C 818.001 1178.747, 819.958 1186.376, 820.487 1185.844 C 820.675 1185.655, 820.230 1183.025, 819.499 1180 C 818.768 1176.975, 818.134 1175.400, 818.091 1176.500 M 82.091 1186.566 C 79.366 1194.179, 79.114 1197.021, 80.694 1202.341 C 84.762 1216.041, 95.133 1230.936, 104.946 1237.174 C 111.529 1241.359, 112.033 1240.601, 105.885 1235.763 C 89.506 1222.876, 85.855 1214.679, 83.752 1186.066 C 83.500 1182.631, 83.500 1182.631, 82.091 1186.566 M 1057 1210 C 1057 1210.733, 1057.300 1211.033, 1057.667 1210.667 C 1058.033 1210.300, 1058.033 1209.700, 1057.667 1209.333 C 1057.300 1208.967, 1057 1209.267, 1057 1210 M 35.649 1217.290 C 27.081 1234.807, 32.324 1255.168, 47.500 1263.317 C 52.196 1265.839, 66.926 1266.474, 69.150 1264.250 C 70.150 1263.250, 68.952 1263, 63.160 1263 C 45.091 1263, 39.788 1255.536, 39 1229 C 38.481 1211.500, 38.481 1211.500, 35.649 1217.290 M 1029.978 1216.300 C 1020.550 1219.480, 1020.325 1219.700, 1019.798 1226.250 C 1019.544 1229.412, 1019.528 1232, 1019.764 1232 C 1019.999 1232, 1022.675 1231.278, 1025.708 1230.396 C 1029.325 1229.345, 1033.769 1228.921, 1038.612 1229.166 C 1046 1229.539, 1046 1229.539, 1046 1221.769 C 1046 1212.819, 1043.168 1211.852, 1029.978 1216.300 M 1057 1222.871 C 1057 1233.917, 1057.293 1234.045, 1068.162 1227.750 C 1075.178 1223.686, 1075.862 1223.500, 1083.750 1223.500 C 1093.541 1223.500, 1093.813 1223.086, 1086.250 1219.695 C 1067.074 1211.097, 1057 1212.190, 1057 1222.871 M 1015.655 1217.753 C 1013.636 1220.760, 1010.765 1223.027, 1001.154 1229.204 C 992.442 1234.802, 984.523 1246.707, 986.347 1251.462 C 987.331 1254.027, 1007.329 1253.671, 1009.959 1251.041 C 1015.020 1245.980, 1018.960 1233.194, 1018.985 1221.750 C 1019.001 1214.334, 1018.420 1213.636, 1015.655 1217.753 M 121 1220.500 C 121 1220.775, 121.225 1221, 121.500 1221 C 121.775 1221, 122 1220.775, 122 1220.500 C 122 1220.225, 121.775 1220, 121.500 1220 C 121.225 1220, 121 1220.225, 121 1220.500 M 122.500 1223 C 122.840 1223.550, 123.343 1224, 123.618 1224 C 123.893 1224, 123.840 1223.550, 123.500 1223 C 123.160 1222.450, 122.657 1222, 122.382 1222 C 122.107 1222, 122.160 1222.450, 122.500 1223 M 1025.054 1231.596 C 1022.058 1232.401, 1019.551 1233.159, 1019.483 1233.280 C 1019.414 1233.401, 1018.439 1235.975, 1017.315 1239 C 1016.192 1242.025, 1014.981 1245.175, 1014.625 1246 C 1013.256 1249.170, 1038.343 1247.609, 1042.537 1244.263 C 1046.513 1241.091, 1047.780 1231.897, 1044.418 1230.607 C 1041.613 1229.530, 1030.656 1230.090, 1025.054 1231.596 M 1057 1234.500 C 1057 1236.183, 1057.863 1236.373, 1059.834 1235.124 C 1060.898 1234.449, 1060.831 1234.149, 1059.502 1233.639 C 1057.175 1232.746, 1057 1232.807, 1057 1234.500 M 854.556 1243.353 C 852.413 1245.496, 848.564 1251.827, 849.224 1252.124 C 850.882 1252.869, 857.239 1252.482, 857.496 1251.621 C 859.969 1243.324, 858.557 1239.352, 854.556 1243.353 M 1044 1246.500 C 1044 1246.775, 1044.225 1247, 1044.500 1247 C 1044.775 1247, 1045 1246.775, 1045 1246.500 C 1045 1246.225, 1044.775 1246, 1044.500 1246 C 1044.225 1246, 1044 1246.225, 1044 1246.500 M 1016 1248.732 C 1013.328 1249.223, 1011 1250.753, 1011 1252.018 C 1011 1253.693, 1034.704 1253.155, 1038.690 1251.389 C 1044.544 1248.796, 1026.894 1246.729, 1016 1248.732 M 1046 1260.500 C 1046 1260.775, 1046.225 1261, 1046.500 1261 C 1046.775 1261, 1047 1260.775, 1047 1260.500 C 1047 1260.225, 1046.775 1260, 1046.500 1260 C 1046.225 1260, 1046 1260.225, 1046 1260.500 M 71.835 1269.502 C 71.651 1273.078, 71.800 1276.003, 72.166 1276.002 C 73.501 1275.998, 81 1265.441, 81 1263.566 C 81 1258.191, 72.122 1263.942, 71.835 1269.502 M 98 1263.813 C 98 1272.906, 129.189 1276.041, 138.482 1267.882 C 143.916 1263.111, 143.496 1263, 120 1263 C 107.900 1263, 98 1263.366, 98 1263.813 M 550.333 1263.667 C 550.700 1264.033, 551.300 1264.033, 551.667 1263.667 C 552.033 1263.300, 551.733 1263, 551 1263 C 550.267 1263, 549.967 1263.300, 550.333 1263.667 M 555 1264 C 555.825 1264.533, 557.625 1264.969, 559 1264.969 C 560.375 1264.969, 562.175 1264.533, 563 1264 C 564.068 1263.310, 562.916 1263.031, 559 1263.031 C 555.084 1263.031, 553.932 1263.310, 555 1264 M 567.813 1263.683 C 568.534 1263.972, 569.397 1263.936, 569.729 1263.604 C 570.061 1263.272, 569.471 1263.036, 568.417 1263.079 C 567.252 1263.127, 567.015 1263.364, 567.813 1263.683 M 571 1263.500 C 571 1263.775, 571.225 1264, 571.500 1264 C 571.775 1264, 572 1263.775, 572 1263.500 C 572 1263.225, 571.775 1263, 571.500 1263 C 571.225 1263, 571 1263.225, 571 1263.500 M 598.616 1264.188 C 602.241 1270.053, 632.385 1272.025, 649.500 1267.518 C 665.978 1263.179, 664.440 1262.837, 629.826 1263.151 C 612.406 1263.309, 598.361 1263.776, 598.616 1264.188 M 674 1265.050 C 674 1268.587, 676.913 1273.160, 678.802 1272.588 C 683.035 1271.306, 703.054 1269.954, 708.756 1270.564 C 715.866 1271.326, 719 1269.729, 719 1265.345 C 719 1263, 719 1263, 696.500 1263 C 674.485 1263, 674 1263.044, 674 1265.050 M 737.693 1266.092 C 742.989 1275.157, 754.204 1276.360, 765.402 1269.064 C 774.229 1263.313, 773.609 1263, 753.384 1263 C 735.887 1263, 735.887 1263, 737.693 1266.092 M 795 1263.800 C 795 1264.240, 795.548 1265.148, 796.218 1265.818 C 796.901 1266.501, 797.400 1269.438, 797.356 1272.518 C 797.312 1275.533, 797.564 1278, 797.916 1278 C 801.301 1278, 807.295 1268.843, 806.328 1265.148 C 805.762 1262.980, 795 1261.700, 795 1263.800 M 850.029 1265.054 C 851.602 1267.994, 856.970 1270.992, 860.668 1270.996 C 862.410 1270.998, 866.010 1272.071, 868.668 1273.380 C 879.175 1278.557, 886.258 1277.650, 894.060 1270.129 C 901.658 1262.806, 902.204 1263, 873.965 1263 C 849.022 1263, 848.934 1263.008, 850.029 1265.054 M 931.513 1265.014 C 942.996 1277.703, 967.300 1283.554, 980.460 1276.797 C 985.420 1274.251, 985.420 1274.251, 988.101 1276.232 C 991.854 1279.007, 995.767 1277.133, 998.657 1271.176 C 998.743 1270.998, 1000.184 1271.561, 1001.857 1272.426 C 1008.515 1275.869, 1020.074 1272.900, 1026.455 1266.108 C 1029.409 1262.964, 1029.409 1262.964, 1008.964 1263.044 C 987.892 1263.128, 985 1263.670, 985 1267.540 C 985 1277.554, 957.236 1276.396, 940.270 1265.673 C 934.931 1262.299, 928.626 1261.824, 931.513 1265.014 M 997 1265.500 C 997 1265.775, 997.225 1266, 997.500 1266 C 997.775 1266, 998 1265.775, 998 1265.500 C 998 1265.225, 997.775 1265, 997.500 1265 C 997.225 1265, 997 1265.225, 997 1265.500" stroke="none" fill="#231c1c" fill-rule="evenodd"/></svg>